<?xml version="1.0" encoding="UTF-8" standalone="no"?>
<!-- Created with Inkscape (http://www.inkscape.org/) -->

<svg
   xmlns:dc="http://purl.org/dc/elements/1.1/"
   xmlns:cc="http://creativecommons.org/ns#"
   xmlns:rdf="http://www.w3.org/1999/02/22-rdf-syntax-ns#"
   xmlns:svg="http://www.w3.org/2000/svg"
   xmlns="http://www.w3.org/2000/svg"
   xmlns:xlink="http://www.w3.org/1999/xlink"
   xmlns:sodipodi="http://sodipodi.sourceforge.net/DTD/sodipodi-0.dtd"
   xmlns:inkscape="http://www.inkscape.org/namespaces/inkscape"
   version="1.1"
   id="svg3713"
   width="1304"
   height="765"
   viewBox="0 0 1304 765"
   sodipodi:docname="map.svg"
   inkscape:version="0.92.4 (5da689c313, 2019-01-14)">
  <metadata
     id="metadata3719">
    <rdf:RDF>
      <cc:Work
         rdf:about="">
        <dc:format>image/svg+xml</dc:format>
        <dc:type
           rdf:resource="http://purl.org/dc/dcmitype/StillImage" />
        <dc:title></dc:title>
      </cc:Work>
    </rdf:RDF>
  </metadata>
  <defs
     id="defs3717">
    <linearGradient
       inkscape:collect="always"
       id="linearGradient5155">
      <stop
         style="stop-color:#7eff89;stop-opacity:1"
         offset="0"
         id="stop5151" />
      <stop
         style="stop-color:#9995c7;stop-opacity:0.75138122"
         offset="1"
         id="stop5153" />
    </linearGradient>
    <linearGradient
       id="linearGradient3793-7"
       spreadMethod="pad"
       gradientTransform="matrix(0,-446,-446,0,360.03903,484)"
       gradientUnits="userSpaceOnUse"
       y2="0"
       x2="1"
       y1="0"
       x1="0">
      <stop
         id="stop5117"
         offset="0"
         style="stop-opacity:1;stop-color:#b862f7" />
      <stop
         id="stop5119"
         offset="1"
         style="stop-opacity:1;stop-color:#a0c4e1" />
      <stop
         id="stop5121"
         offset="1"
         style="stop-opacity:1;stop-color:#16e727" />
    </linearGradient>
    <linearGradient
       inkscape:collect="always"
       id="linearGradient5096">
      <stop
         style="stop-color:#29b7ee;stop-opacity:1;"
         offset="0"
         id="stop5092" />
      <stop
         style="stop-color:#29b7ee;stop-opacity:0;"
         offset="1"
         id="stop5094" />
    </linearGradient>
    <linearGradient
       id="linearGradient3793"
       spreadMethod="pad"
       gradientTransform="matrix(0,-446,-446,0,360.03903,484)"
       gradientUnits="userSpaceOnUse"
       y2="0"
       x2="1"
       y1="0"
       x1="0">
      <stop
         id="stop5067"
         offset="0"
         style="stop-opacity:0.64824122;stop-color:#29b7ee" />
      <stop
         id="stop5069"
         offset="0.6235317"
         style="stop-opacity:1;stop-color:#358dff" />
      <stop
         id="stop5071"
         offset="1"
         style="stop-opacity:1;stop-color:#42c6ff" />
    </linearGradient>
    <linearGradient
       x1="0"
       y1="0"
       x2="1"
       y2="0"
       gradientUnits="userSpaceOnUse"
       gradientTransform="matrix(0,-446,-446,0,360.03903,484)"
       spreadMethod="pad"
       id="linearGradient3793-7-1">
      <stop
         style="stop-opacity:1;stop-color:#29b7ee"
         offset="0"
         id="stop3787" />
      <stop
         style="stop-opacity:1;stop-color:#243eae"
         offset="0.41503764"
         id="stop3789" />
      <stop
         style="stop-opacity:1;stop-color:#243eae"
         offset="1"
         id="stop3791" />
    </linearGradient>
    <linearGradient
       inkscape:collect="always"
       xlink:href="#linearGradient5096"
       id="linearGradient5098"
       x1="236.988"
       y1="269.5305"
       x2="483.09"
       y2="269.5305"
       gradientUnits="userSpaceOnUse" />
    <linearGradient
       inkscape:collect="always"
       xlink:href="#linearGradient3793-7-1"
       id="linearGradient5100"
       gradientUnits="userSpaceOnUse"
       x1="236.98801"
       y1="269.53049"
       x2="483.09"
       y2="269.53049" />
    <linearGradient
       inkscape:collect="always"
       xlink:href="#linearGradient5155"
       id="linearGradient5157"
       x1="236.988"
       y1="269.5305"
       x2="483.09"
       y2="269.5305"
       gradientUnits="userSpaceOnUse" />
  </defs>
  <sodipodi:namedview
     pagecolor="#ffffff"
     bordercolor="#666666"
     borderopacity="1"
     objecttolerance="10"
     gridtolerance="10"
     guidetolerance="10"
     inkscape:pageopacity="0"
     inkscape:pageshadow="2"
     inkscape:window-width="1600"
     inkscape:window-height="837"
     id="namedview3715"
     showgrid="false"
     inkscape:zoom="0.61929614"
     inkscape:cx="532.89481"
     inkscape:cy="344.21795"
     inkscape:window-x="-8"
     inkscape:window-y="-8"
     inkscape:window-maximized="1"
     inkscape:current-layer="g3777"
     inkscape:snap-global="true" />
  <g
     id="g3775"
     transform="matrix(4.6786821,0,0,-4.6786821,-1039.618,1647.5437)"
     style="opacity:1;fill:url(#linearGradient5098);fill-opacity:1">
    <g
       id="g3777"
       style="fill:url(#linearGradient5098);fill-opacity:1">
      <g
         id="g3783"
         style="fill:url(#linearGradient5100);fill-opacity:1.0">
        <g
           id="g3785"
           style="fill:url(#linearGradient5100);fill-opacity:1.0">
          <path
             d="m 296.859,267.338 -0.294,0.486 -0.73,0.879 -0.293,0.629 -0.049,0.636 0.097,0.733 v 0.676 l -0.194,0.735 -0.536,0.632 -1.607,0.975 -3.509,1.072 -0.826,0.048 -0.83,-0.391 -0.777,-1.024 -0.145,-0.531 -0.294,-1.563 -0.097,-0.387 -0.585,-0.294 -1.22,0.439 -0.484,-0.387 -0.149,-1.563 0.927,-0.974 1.998,-0.777 3.457,-3.313 0.439,-0.047 1.169,0.68 0.535,0.195 1.366,-0.099 0.681,-0.241 0.633,-0.439 0.583,-0.244 0.343,0.441 0.294,0.629 0.777,0.588 -0.096,0.58 z m 23.383,-31.18 -1.121,-0.385 -0.684,-1.072 0.245,-1.756 1.072,-0.974 1.217,0.634 0.729,1.557 -0.339,1.756 z m 83.641,8.672 v -2.289 l -0.148,-0.975 -0.34,-0.97 -0.536,-0.78 -0.682,-0.779 -0.637,-0.879 -0.289,-1.168 0.145,-1.361 0.391,-0.928 0.241,-0.879 -0.338,-1.168 -0.487,-0.584 -0.246,0.489 -0.193,1.07 -0.584,1.898 -0.146,2.047 -0.293,0.873 -0.779,0.977 -0.636,0.539 -0.29,0.826 0.145,1.752 -2.095,2.877 -0.343,0.877 -0.096,0.582 -0.242,0.441 -0.246,0.534 -0.097,0.925 0.15,0.637 1.071,1.41 0.532,1.51 0.342,1.314 0.537,0.975 1.119,0.439 h 1.121 l 1.221,-0.242 1.119,-0.636 0.826,-1.024 1.073,-1.703 0.148,-1.898 z m 78.768,82.717 -0.973,0.878 -0.441,0.532 -0.39,0.685 -0.923,2.289 -0.829,0.877 -1.704,0.927 -0.73,1.411 -1.515,-2.728 -1.168,-1.415 -1.512,-1.023 -1.607,-0.532 -6.088,1.459 -5.942,0.39 -5.99,1.511 -5.213,-0.39 -6.141,-0.391 -6.917,0.636 -0.777,0.291 -1.607,1.022 -1.902,0.686 -3.408,3.746 -1.414,1.169 -1.462,0.829 -1.508,0.439 -1.606,0.15 -0.536,-0.246 -1.317,-1.072 -0.635,-0.245 -0.876,0.048 -1.559,0.443 -2.192,1.313 -2.386,0.584 -1.608,1.072 -0.733,0.247 -7.304,-0.15 -0.342,0.15 -0.048,0.578 -0.048,0.444 -0.151,0.29 -1.458,1.458 -1.316,0.734 -0.536,0.145 -0.435,-0.242 -0.488,-0.782 -0.053,-0.68 0.151,-0.681 -0.098,-0.487 -0.782,-0.199 -0.68,0.831 -0.879,1.41 -0.825,0.588 -0.537,-1.805 0.29,-0.531 -0.583,-1.125 -0.633,-0.681 -0.681,-0.144 -0.733,0.386 -0.536,0.83 -0.289,1.854 -0.488,0.974 0.29,0.58 -2.145,2.288 -1.167,0.395 -0.928,-1.171 0.199,-0.097 0.339,-0.295 0.245,-0.048 -0.198,-1.603 0.391,-0.975 0.586,-0.878 0.293,-1.313 -0.488,-1.415 -1.12,-0.246 -1.264,0.439 -0.879,0.681 -1.168,1.95 -0.637,0.83 -0.826,0.338 -0.729,0.589 -1.269,2.53 -0.681,0.584 -0.246,-1.414 0.149,-3.066 0.585,-3.07 1.119,-1.415 0.391,-0.241 0.291,-0.536 v -0.536 l -0.39,-0.241 H 376.7 l -0.927,-0.391 -0.536,-0.975 0.242,-1.752 h -0.048 l -8.28,2.384 -1.901,1.266 -0.927,0.048 -0.536,-0.778 0.344,-1.994 -0.73,-0.394 -0.83,0.245 -1.607,1.072 -0.927,0.246 -3.017,-0.782 -0.975,0.242 -2.631,3.263 -1.511,1.221 -1.169,-0.826 0.146,-0.589 0.097,-0.482 0.047,-0.54 v -0.73 l 0.15,-0.681 0.29,-0.391 0.343,-0.341 0.241,-0.435 0.343,-1.169 -0.097,-0.395 -0.878,-1.898 -0.242,-0.342 -0.44,-0.339 -1.071,-0.241 -0.633,0.874 -0.487,1.318 -0.685,1.168 -0.434,0.289 -0.44,0.098 -0.342,-0.291 -0.145,-0.829 -0.145,-0.682 -0.391,-0.197 -1.024,0.101 v -0.632 l 0.729,-0.295 0.637,-0.681 0.145,-0.684 -0.68,-0.339 -0.685,0.194 -2.24,1.607 -0.73,0.246 -0.584,-0.492 -0.636,-0.628 -0.73,-0.343 -0.777,0.343 -1.414,1.652 -0.782,0.587 -0.874,0.097 -2.534,-0.636 -0.145,-0.532 -0.44,-2.486 -0.438,-0.922 -1.362,-0.54 -3.413,-0.242 -0.777,-0.488 0.927,-0.874 1.018,-1.418 0.344,-1.313 -1.072,-0.584 -1.12,0.488 -2.192,2.336 -1.12,0.829 -0.681,0.146 -0.588,-0.194 -0.536,-0.487 -0.483,-0.778 -0.101,-0.83 0.343,-0.733 2.486,-3.408 0.338,-1.41 -0.778,-1.756 -1.607,1.659 -1.95,-0.196 -2.047,-0.779 -1.801,-0.149 -1.708,0.44 -3.408,-0.097 -0.878,-0.439 -0.436,-0.975 0.485,-0.439 0.293,-0.729 -0.048,-0.827 -0.439,-0.684 -0.584,0.096 -2.095,1.999 -0.778,-0.049 -0.536,-0.535 -0.487,-0.633 -0.879,-0.439 -0.535,-0.729 -0.343,-0.146 -0.435,0.097 -0.83,0.339 -0.439,0.048 -2.143,-1.362 0.584,-2.876 1.269,-3.698 -0.048,-3.9 -0.685,0.926 -0.387,0.193 -0.391,-0.338 -1.752,-2.095 -0.246,-0.927 0.294,-1.36 -0.294,0.047 -0.536,-0.047 -0.242,0.047 1.024,-1.611 1.023,-0.878 2.481,-0.629 0.247,-0.246 0.193,-0.438 0.242,-0.339 0.39,0.097 0.198,0.829 v 0.826 l 0.777,1.023 0.294,0.194 0.681,0.101 0.342,0.193 -0.487,0.975 -1.12,1.12 -0.487,0.975 0.922,-0.637 0.878,-0.926 0.633,-1.314 0.246,-1.804 v -0.923 l -0.097,-0.488 -0.294,-0.386 -1.265,-1.072 -0.685,-0.246 -0.681,0.048 -0.68,0.44 -0.83,-1.12 -2.583,0.193 -0.826,-1.168 v -1.512 l 1.265,-1.897 0.343,-1.414 2.384,-3.215 -0.289,-0.536 -1.27,-0.241 -0.729,-0.684 -1.462,-2.68 2.191,0.923 0.734,0.149 1.216,-0.343 0.246,0.049 0.29,0.391 0.391,0.342 0.778,0.483 0.926,0.198 2.824,-0.198 1.805,0.637 0.778,-0.097 0.729,-0.926 1.023,1.168 1.221,-0.096 1.216,-0.879 1.072,-1.217 -0.729,0.097 -1.511,0.878 -0.632,0.049 -0.536,-0.536 -0.246,-0.875 0.145,-0.781 0.589,-0.342 0.241,-0.242 0.048,-0.536 -0.048,-0.536 -0.096,-0.246 h -1.221 l -0.632,0.193 -1.512,0.975 -0.777,0.295 -1.511,-0.145 -1.414,-0.536 -1.458,-0.242 -1.511,0.73 h -0.488 l -0.245,-0.831 0.101,-0.971 0.632,-0.636 v -0.339 l -0.145,-0.341 -0.294,-0.15 -0.83,0.294 -0.339,-0.096 -0.342,-0.681 -0.193,-1.708 0.29,-1.947 0.439,-1.849 0.246,-1.365 -0.198,-0.729 -0.338,-0.783 -0.246,-0.781 0.145,-0.729 0.584,-0.584 0.342,0.338 0.295,0.782 0.536,0.734 0.584,0.24 0.145,-0.437 0.048,-0.826 0.294,-1.024 0.439,-0.539 0.729,-0.678 0.778,-0.49 0.487,-0.051 1.121,0.59 0.584,-0.879 0.197,-1.804 -0.049,-2.192 -0.245,-1.801 v -0.777 l 0.245,-0.975 0.44,-0.685 0.536,-0.436 0.435,-0.588 0.197,-1.119 0.049,-0.73 0.145,-0.877 0.194,-0.826 0.245,-0.637 0.294,-0.291 0.29,0.098 0.245,0.289 0.242,0.443 0.343,0.34 0.386,-0.147 0.392,-0.289 0.341,-0.197 0.291,0.145 0.246,0.246 0.241,0.193 0.343,-0.049 0.193,-0.193 0.439,-0.637 0.194,-0.242 0.733,-0.338 1.559,-0.148 2.583,-1.121 1.023,-1.317 1.8,-1.652 1.169,-1.998 0.439,-0.44 0.681,-0.293 0.343,0.293 0.68,1.657 0.633,0.632 h 0.684 l 1.41,-0.39 0.681,0.193 0.54,0.441 0.484,0.684 1.172,2.141 0.145,0.633 0.049,1.169 0.144,0.877 0.343,0.975 0.44,0.879 0.434,0.58 1.366,0.684 1.608,-0.145 1.607,-0.684 3.263,-2.63 0.83,-1.266 0.339,-1.559 -0.436,-1.709 -1.072,-0.968 -1.172,-0.78 -0.777,-1.072 -0.146,-0.828 v -1.656 l -0.487,-1.559 v -0.832 l 0.193,-0.775 0.294,-0.682 0.194,-0.781 -0.048,-0.879 -0.29,-1.602 v -3.509 l -0.685,-1.27 -1.849,-2.289 -0.681,-2.877 -1.805,-4.527 -0.145,-0.83 -0.097,-0.875 -0.149,-0.825 -0.289,-0.685 -0.391,-0.682 1.655,-0.68 1.12,0.047 0.926,0.485 0.441,0.636 0.631,1.704 0.488,0.586 1.51,0.828 2.047,1.898 0.778,0.197 2.727,-0.246 2.341,0.246 0.584,0.485 0.729,1.998 0.536,0.781 1.216,-0.295 1.024,-0.633 1.023,-0.144 1.221,1.119 0.923,0.584 3.021,0.392 0.976,0.68 2.871,2.971 0.83,0.539 0.927,0.289 1.849,0.049 1.023,-0.68 0.536,-1.512 0.343,-1.804 0.484,-1.555 0.587,-0.488 h 0.585 l 1.216,0.633 0.777,1.023 -0.29,1.168 -1.07,1.998 0.047,1.266 0.488,0.486 0.681,-0.145 0.68,-0.584 0.295,-0.486 0.439,-1.318 0.242,-0.436 0.342,-0.197 0.242,0.053 0.246,0.144 h 0.39 l 1.559,-0.83 2.337,-2.877 1.511,-0.969 1.36,-0.294 0.393,-0.243 0.342,-0.535 0.047,-0.488 0.049,-0.486 0.193,-0.586 0.831,-1.071 0.875,-0.537 1.023,-0.148 0.975,0.099 2.533,0.875 H 388 l 0.585,-1.023 0.342,-1.457 0.488,-1.463 0.971,-0.926 8.138,-0.73 0.434,-0.242 0.295,-0.342 0.145,-0.682 -0.145,-0.441 -0.242,-0.436 -0.101,-0.685 0.101,-1.508 0.339,-0.877 4.286,-3.602 1.268,-1.515 3.655,-6.039 1.314,-1.559 1.606,-1.168 3.557,-1.559 0.633,-0.632 1.315,-1.854 0.636,-0.875 0.584,0.098 0.535,0.486 0.536,0.291 0.391,-0.098 0.73,-0.529 0.39,-0.15 0.388,0.197 0.195,0.436 0.146,0.535 0.247,0.488 1.119,1.023 1.265,0.733 1.314,0.435 3.02,-0.144 0.681,0.191 0.783,0.735 0.487,1.023 0.386,1.072 0.589,0.926 0.729,0.338 0.487,-0.391 0.44,-0.535 0.584,-0.097 0.68,0.144 h 0.681 l 1.318,-0.433 0.927,-0.735 1.41,-2.191 0.781,-0.926 0.923,-0.436 3.118,-0.197 5.995,-2.191 1.265,0.826 -0.294,0.732 -0.339,1.121 -0.294,1.215 v 0.928 l 0.342,0.633 0.487,0.148 0.537,0.049 0.487,0.242 0.193,0.391 0.097,0.293 0.098,1.508 -0.048,0.24 -0.098,0.246 -0.097,0.977 -0.097,0.293 -0.051,0.339 0.101,0.684 0.192,0.58 0.295,0.443 0.632,0.627 3.215,1.122 0.68,0.734 0.05,0.926 -0.438,2.047 0.196,1.216 0.387,0.633 0.535,0.44 1.071,0.535 -0.825,0.728 -0.293,0.145 0.535,0.295 6.332,0.974 2.439,1.024 0.926,0.633 0.488,0.974 -0.343,1.459 -0.633,0.733 -3.948,1.607 -0.338,0.391 -0.246,1.023 0.145,0.826 0.293,0.778 0.194,0.927 -0.242,1.756 -0.729,0.584 -0.344,0.139 -0.243,-0.529 -0.683,-2.192 -0.535,1.559 -0.29,1.752 -0.148,1.806 -0.05,1.604 0.15,1.756 -0.15,0.732 -1.216,0.58 -0.391,0.735 -0.536,1.998 -1.997,4.088 -0.487,1.416 -0.098,0.828 0.913,0.729 -0.004,0.031 -1.004,-0.76 -0.049,2.24 -0.098,0.435 -0.438,0.344 -1.559,2.19 0.293,0.826 -0.097,0.685 -0.246,0.633 -0.144,0.826 v 1.563 l 0.144,0.482 0.295,0.393 0.146,0.39 -0.294,0.487 -0.585,0.486 -2.678,1.461 -1.704,0.047 -0.879,0.295 -0.924,1.123 -0.294,1.605 0.098,3.604 -0.098,1.951 -1.265,6.573 -1.412,3.993 -2.438,4.778 -0.923,1.265 -3.653,2.531 -0.976,1.317 -0.343,1.801 0.198,2.143 0.488,2.047 0.535,1.414 1.217,2.095 1.312,1.607 1.415,1.169 7.99,3.118 9.693,1.119 6.888,-1.533 0.37,1.437 1.656,3.118 0.681,1.608 2.245,6.333 0.518,2.426 0.65,3.178 0.681,1.603 -0.343,1.318 0.057,0.078 -0.004,0.019 0.826,1.119 2.143,1.221 4.533,-0.1 0.706,0.971 -0.857,-0.044 -2.822,1.119 0.104,0.055 -0.104,0.042 1.216,0.632 3.168,0.245 1.703,1.415 0.927,-0.588 0.196,1.414 z m -189.446,-66.981 -1.265,0.877 -0.975,0.34 -1.608,0.391 -1.559,0.83 -0.584,0.535 -0.294,0.436 -0.585,1.513 -0.777,1.121 -2.095,0.975 -1.805,1.312 -1.752,0.632 -0.878,0.537 -0.875,0.193 -2.046,-0.531 -1.366,0.729 -0.826,-0.585 -1.269,-1.609 -0.826,-0.34 -0.636,0.242 -0.633,0.443 -0.777,0.241 -0.246,-0.145 -0.681,-0.683 -0.39,-0.147 -0.29,0.147 -0.392,0.683 -0.241,0.145 -0.439,0.387 -0.734,1.756 -0.435,0.386 -1.268,-0.386 -3.361,-2.729 -5.455,-0.58 -1.317,-1.17 -0.145,-1.467 -0.048,-2.041 -0.391,-1.463 -1.169,0.193 -0.584,0.44 -0.145,0.439 -0.048,0.877 -0.053,0.34 -0.144,0.438 -0.145,0.39 -0.097,0.145 -0.734,-0.047 -0.241,-0.242 -0.193,-0.539 -0.44,-1.02 -0.488,-0.584 -1.216,-0.685 -0.54,-0.483 -0.387,-0.783 -0.196,-0.83 -0.194,-1.945 0.194,-1.073 v -0.631 l -0.339,-0.295 h -0.246 l -0.193,0.098 -0.146,0.244 -0.048,0.436 -0.101,1.023 -0.241,0.782 -1.704,3.166 -0.976,0.976 -1.119,0.387 -1.463,0.049 -0.193,-0.436 v -0.391 l -0.101,-0.246 -0.584,-0.242 h -0.632 l -2.047,0.926 1.072,-1.414 1.071,-1.072 0.536,-0.68 0.878,-1.607 0.83,-1.073 1.704,-3.363 0.488,-1.604 0.338,-0.83 -0.826,0.291 -0.878,-0.242 -0.487,-0.781 0.342,-1.266 -0.733,-0.584 -0.633,0.584 -0.632,0.975 -0.681,0.488 -0.83,-0.342 0.246,-0.878 0.68,-1.168 0.44,-1.122 -2.047,0.588 -0.487,-0.345 v -0.629 l 0.294,-0.877 0.633,-1.266 1.119,-1.023 1.265,-0.44 h 2.534 l 0.879,-0.777 1.41,-3.461 0.733,-0.777 2.679,-0.493 1.511,-0.626 0.874,-0.975 -1.458,-2.293 -0.246,-0.731 -0.242,-1.509 -0.197,-0.489 -0.488,-0.191 -0.483,0.191 -0.488,0.34 -0.584,0.198 -0.391,-0.295 -0.342,-0.682 -0.681,-1.559 -1.462,-2.289 -0.242,-0.683 -0.439,-1.508 -0.295,-0.535 -0.289,-0.102 -1.024,0.102 -0.048,-0.293 v -0.34 l 0.048,-0.295 0.097,-0.096 0.536,-0.244 0.391,-0.582 0.144,-0.83 -0.144,-0.828 1.023,-1.555 1.217,0.047 5.503,5.016 0.536,0.728 -0.194,1.662 0.049,0.676 0.39,0.637 0.44,0.584 0.29,0.68 1.072,3.023 0.341,1.605 0.194,1.61 0.049,2.726 0.096,0.344 0.294,0.24 0.488,0.784 1.12,1.021 1.168,0.731 0.295,0.046 0.728,0.44 0.294,0.242 0.388,0.049 0.438,-0.291 0.44,-0.194 0.391,0.387 0.434,0.537 0.637,0.487 0.681,0.289 0.535,-0.047 v -0.242 l 0.194,-1.119 v -0.243 l 0.294,0.047 0.096,0.098 0.146,0.144 0.294,0.243 0.338,1.269 0.343,0.488 0.536,-0.439 0.439,-0.779 0.193,-0.149 0.246,0.295 0.584,0.633 0.632,0.293 0.73,0.049 0.733,-0.198 0.584,-0.39 0.536,-1.701 2.095,0.291 1.313,1.265 -1.8,1.119 0.438,0.928 0.826,0.24 1.757,-0.193 0.874,0.145 0.584,0.392 1.12,1.463 0.637,0.434 0.632,0.197 0.584,0.342 2.583,3.554 -0.83,0.926 0.294,0.637 0.874,0.049 1.708,-1.367 0.778,0.634 0.83,1.024 0.874,0.679 -0.097,0.391 -0.096,0.44 -0.048,0.486 v 0.435 l 0.144,0.83 0.343,0.147 0.387,-0.147 0.246,-0.048 0.584,0.488 0.241,0.295 0.294,0.482 0.145,0.44 0.198,1.072 0.048,0.293 0.242,0.387 0.048,0.148 h 0.584 l 0.391,-0.197 0.246,-0.483 0.145,-0.539 0.145,-0.339 0.781,-0.782 0.73,-0.435 1.656,-0.246 -0.243,0.681 -0.341,0.391 -0.44,0.246 -0.487,0.145 0.927,0.679 2.485,-1.75 0.29,1.071 -0.584,1.167 z m 162.944,-6.966 -0.024,0.025 -0.071,0.023 h -0.245 l -0.243,-0.193 -0.246,-0.295 -0.144,-0.482 1.168,-0.686 0.589,-0.096 0.632,0.241 -0.294,0.59 -0.338,0.386 z m -115.304,86.323 1.022,0.29 0.295,0.729 -0.729,1.998 -0.584,1.072 -0.589,-0.149 -0.536,-1.362 0.049,-1.409 z m -52.998,-43.163 0.584,-0.387 0.439,-0.049 1.414,0.338 0.193,0.339 0.097,0.346 0.246,0.145 0.826,-0.196 1.317,-0.778 h 0.777 l 1.169,0.829 0.391,0.145 0.39,-0.145 0.488,-0.346 0.435,-0.145 0.391,0.39 0.342,1.173 -0.149,0.826 -0.97,1.607 -0.782,0.782 h -0.879 l -1.704,-0.491 -2.727,0.878 -1.41,0.144 -0.878,-0.096 -0.633,-0.29 -0.487,-0.54 -0.198,-0.874 0.198,-0.44 z m -36.976,-6.382 1.22,-0.097 2.535,0.633 1.313,0.1 1.12,-0.343 1.072,-0.729 1.852,-2.243 0.388,-0.826 0.096,-1.072 v -1.804 l 0.294,-1.217 0.585,-1.511 0.733,-1.366 0.532,-0.778 -0.632,-0.971 -0.339,-0.346 -0.343,-0.242 1.511,-1.608 2.095,-0.583 2.143,0.241 1.704,0.927 1.024,1.611 1.313,4.335 0.83,1.802 0.633,0.632 0.926,0.685 0.975,0.435 0.632,-0.048 0.291,-0.782 -0.584,-0.629 -0.826,-0.636 -0.44,-0.782 0.44,-0.825 1.023,-0.391 1.12,0.048 0.681,0.443 0.439,0.435 h 0.29 l 0.197,0.193 0.049,0.928 -0.049,0.684 -0.149,0.387 -0.242,0.193 h -0.342 l 0.487,0.927 0.637,0.193 h 0.681 l 0.632,0.347 0.488,-0.444 0.194,0.246 0.096,0.488 0.294,0.242 0.391,-0.049 0.387,-0.193 1.607,-1.121 0.588,0.098 0.242,0.781 -0.048,1.507 -0.145,0.048 h -0.295 l -0.241,0.145 -0.101,0.491 v 0.827 l -0.048,0.39 -0.098,0.338 -0.289,0.444 -0.536,0.629 -0.246,0.443 -0.338,0.435 -0.83,0.685 -0.343,0.728 -0.096,0.681 0.197,1.169 -0.101,0.782 -0.584,0.974 -3.751,1.849 -3.895,-0.245 -0.633,0.491 -0.733,1.024 -0.386,1.216 0.874,2.144 -0.681,0.729 -1.169,0.439 -1.022,0.145 -1.657,0.294 -0.391,-0.198 -0.342,-0.632 -0.048,-0.632 v -0.633 l -0.145,-0.681 -0.536,-1.072 -0.584,-0.635 -0.681,-0.291 -0.879,-0.048 -0.632,-0.685 v -2.627 l -0.439,-0.048 -0.878,0.483 -0.488,-0.193 0.053,-0.536 0.777,-0.536 -11.397,-1.559 -2.877,0.439 -1.51,-0.241 -0.435,-1.27 0.681,-0.777 z m 41.262,-79.302 -0.83,0.678 -0.584,0.1 -0.145,-0.438 -0.049,-0.584 -0.048,-0.635 0.44,-0.683 0.825,-0.532 0.781,0.096 0.145,0.875 -0.145,0.68 z m -28.547,24.94 -0.049,0.439 -0.097,0.293 -0.145,0.049 -0.097,0.144 -0.048,0.338 -0.1,0.151 -0.387,0.144 -0.149,-0.049 -0.049,-0.826 -0.68,-1.564 0.777,-0.873 0.049,-0.68 0.1,-0.049 1.121,1.651 0.048,0.343 -0.246,0.149 z"
             style="fill:url(#linearGradient5157);stroke:none;fill-opacity:1"
             id="path3795"
             inkscape:connector-curvature="0" />
        </g>
      </g>
    </g>
  </g>
  <circle
     style="opacity:1;fill:#f70000;fill-opacity:1"
     id="path4800"
     cx="114.53592"
     cy="277.24115"
     r="1.6413246" />
  <circle
     r="1.6413246"
     cy="477.91095"
     cx="78.569511"
     id="circle4823"
     style="opacity:1;fill:#f70000;fill-opacity:1" />
  <circle
     style="opacity:1;fill:#f70000;fill-opacity:1"
     id="circle4825"
     cx="118.5322"
     cy="598.08447"
     r="1.6413246" />
  <circle
     r="1.6413246"
     cy="546.14978"
     cx="459.50195"
     id="circle4827"
     style="opacity:1;fill:#f70000;fill-opacity:1" />
  <circle
     style="opacity:1;fill:#f70000;fill-opacity:1"
     id="circle4829"
     cx="550.33087"
     cy="462.789"
     r="1.6413246" />
  <circle
     r="1.6413246"
     cy="470.86267"
     cx="748.94342"
     id="circle4831"
     style="opacity:1;fill:#f70000;fill-opacity:1" />
  <circle
     style="opacity:1;fill:#f70000;fill-opacity:1"
     id="circle4833"
     cx="909.63788"
     cy="508.25427"
     r="1.6413246" />
  <circle
     r="1.6413246"
     cy="652.36951"
     cx="1008.1368"
     id="circle4835"
     style="opacity:1;fill:#f70000;fill-opacity:1" />
  <circle
     r="1.6413246"
     cy="340.7254"
     cx="895.9126"
     id="circle4839"
     style="opacity:1;fill:#f70000;fill-opacity:1" />
  <circle
     style="opacity:1;fill:#f70000;fill-opacity:1"
     id="circle4841"
     cx="998.67377"
     cy="295.62466"
     r="1.6413246" />
  <circle
     r="1.6413246"
     cy="204.85228"
     cx="870.22229"
     id="circle4843"
     style="opacity:1;fill:#f70000;fill-opacity:1" />
  <circle
     style="opacity:1;fill:#f70000;fill-opacity:1"
     id="circle4845"
     cx="720.05182"
     cy="317.88382"
     r="1.6413246" />
  <circle
     r="1.6413246"
     cy="116.46838"
     cx="1217.8395"
     id="circle4847"
     style="opacity:1;fill:#f70000;fill-opacity:1" />
  <circle
     style="opacity:1;fill:#f70000;fill-opacity:1"
     id="circle4849"
     cx="1080.2537"
     cy="124.46092"
     r="1.6413246" />
  <circle
     r="1.6413246"
     cy="72.50943"
     cx="918.69025"
     id="circle4851"
     style="opacity:1;fill:#f70000;fill-opacity:1" />
  <circle
     style="opacity:1;fill:#f70000;fill-opacity:1"
     id="circle4853"
     cx="592.138"
     cy="260.90497"
     r="1.6413246" />
  <circle
     cy="271.40073"
     cx="377.78174"
     id="circle4855"
     style="opacity:1;fill:#f70000;fill-opacity:1"
     r="1.6413246" />
  <circle
     r="1.6413246"
     style="opacity:1;fill:#f70000;fill-opacity:1"
     id="circle4857"
     cx="570.94458"
     cy="111.74367" />
</svg>
