<?xml version="1.0" encoding="UTF-8" standalone="no"?>
<!-- Created with Inkscape (http://www.inkscape.org/) -->

<svg
   xmlns:osb="http://www.openswatchbook.org/uri/2009/osb"
   xmlns:dc="http://purl.org/dc/elements/1.1/"
   xmlns:cc="http://creativecommons.org/ns#"
   xmlns:rdf="http://www.w3.org/1999/02/22-rdf-syntax-ns#"
   xmlns:svg="http://www.w3.org/2000/svg"
   xmlns="http://www.w3.org/2000/svg"
   xmlns:sodipodi="http://sodipodi.sourceforge.net/DTD/sodipodi-0.dtd"
   xmlns:inkscape="http://www.inkscape.org/namespaces/inkscape"
   version="1.1"
   id="svg6164"
   width="1304"
   height="765"
   viewBox="0 0 1304 765"
   sodipodi:docname="stations_mono_line.svg"
   inkscape:version="0.92.4 (5da689c313, 2019-01-14)">
  <metadata
     id="metadata6170">
    <rdf:RDF>
      <cc:Work
         rdf:about="">
        <dc:format>image/svg+xml</dc:format>
        <dc:type
           rdf:resource="http://purl.org/dc/dcmitype/StillImage" />
        <dc:title></dc:title>
      </cc:Work>
    </rdf:RDF>
  </metadata>
  <defs
     id="defs6168">
    <linearGradient
       id="linearGradient6822"
       osb:paint="solid">
      <stop
         style="stop-color:#6e6869;stop-opacity:1;"
         offset="0"
         id="stop6820" />
    </linearGradient>
    <linearGradient
       x1="0"
       y1="0"
       x2="1"
       y2="0"
       gradientUnits="userSpaceOnUse"
       gradientTransform="matrix(0,-446,-446,0,360.03903,484)"
       spreadMethod="pad"
       id="linearGradient6226">
      <stop
         style="stop-opacity:1;stop-color:#29b7ee"
         offset="0"
         id="stop6220" />
      <stop
         style="stop-opacity:1;stop-color:#243eae"
         offset="0.41503764"
         id="stop6222" />
      <stop
         style="stop-opacity:1;stop-color:#243eae"
         offset="1"
         id="stop6224" />
    </linearGradient>
  </defs>
  <sodipodi:namedview
     pagecolor="#ffffff"
     bordercolor="#666666"
     borderopacity="1"
     objecttolerance="10"
     gridtolerance="10"
     guidetolerance="10"
     inkscape:pageopacity="0"
     inkscape:pageshadow="2"
     inkscape:window-width="1600"
     inkscape:window-height="837"
     id="namedview6166"
     showgrid="false"
     inkscape:zoom="2.4771845"
     inkscape:cx="1250.3189"
     inkscape:cy="656.29694"
     inkscape:window-x="-8"
     inkscape:window-y="-8"
     inkscape:window-maximized="1"
     inkscape:current-layer="svg6164" />
  <g
     id="g6208"
     transform="matrix(4.7363259,0,0,-4.7363259,-1060.9964,1661.9852)"
     style="opacity:0.287">
    <g
       id="g6210"
       style="">
      <g
         id="g6216"
         style="">
        <g
           id="g6218"
           style="">
          <path
             d="m 296.859,267.338 -0.294,0.486 -0.73,0.879 -0.293,0.629 -0.049,0.636 0.097,0.733 v 0.676 l -0.194,0.735 -0.536,0.632 -1.607,0.975 -3.509,1.072 -0.826,0.048 -0.83,-0.391 -0.777,-1.024 -0.145,-0.531 -0.294,-1.563 -0.097,-0.387 -0.585,-0.294 -1.22,0.439 -0.484,-0.387 -0.149,-1.563 0.927,-0.974 1.998,-0.777 3.457,-3.313 0.439,-0.047 1.169,0.68 0.535,0.195 1.366,-0.099 0.681,-0.241 0.633,-0.439 0.583,-0.244 0.343,0.441 0.294,0.629 0.777,0.588 -0.096,0.58 z m 23.383,-31.18 -1.121,-0.385 -0.684,-1.072 0.245,-1.756 1.072,-0.974 1.217,0.634 0.729,1.557 -0.339,1.756 z m 83.641,8.672 v -2.289 l -0.148,-0.975 -0.34,-0.97 -0.536,-0.78 -0.682,-0.779 -0.637,-0.879 -0.289,-1.168 0.145,-1.361 0.391,-0.928 0.241,-0.879 -0.338,-1.168 -0.487,-0.584 -0.246,0.489 -0.193,1.07 -0.584,1.898 -0.146,2.047 -0.293,0.873 -0.779,0.977 -0.636,0.539 -0.29,0.826 0.145,1.752 -2.095,2.877 -0.343,0.877 -0.096,0.582 -0.242,0.441 -0.246,0.534 -0.097,0.925 0.15,0.637 1.071,1.41 0.532,1.51 0.342,1.314 0.537,0.975 1.119,0.439 h 1.121 l 1.221,-0.242 1.119,-0.636 0.826,-1.024 1.073,-1.703 0.148,-1.898 z m 78.768,82.717 -0.973,0.878 -0.441,0.532 -0.39,0.685 -0.923,2.289 -0.829,0.877 -1.704,0.927 -0.73,1.411 -1.515,-2.728 -1.168,-1.415 -1.512,-1.023 -1.607,-0.532 -6.088,1.459 -5.942,0.39 -5.99,1.511 -5.213,-0.39 -6.141,-0.391 -6.917,0.636 -0.777,0.291 -1.607,1.022 -1.902,0.686 -3.408,3.746 -1.414,1.169 -1.462,0.829 -1.508,0.439 -1.606,0.15 -0.536,-0.246 -1.317,-1.072 -0.635,-0.245 -0.876,0.048 -1.559,0.443 -2.192,1.313 -2.386,0.584 -1.608,1.072 -0.733,0.247 -7.304,-0.15 -0.342,0.15 -0.048,0.578 -0.048,0.444 -0.151,0.29 -1.458,1.458 -1.316,0.734 -0.536,0.145 -0.435,-0.242 -0.488,-0.782 -0.053,-0.68 0.151,-0.681 -0.098,-0.487 -0.782,-0.199 -0.68,0.831 -0.879,1.41 -0.825,0.588 -0.537,-1.805 0.29,-0.531 -0.583,-1.125 -0.633,-0.681 -0.681,-0.144 -0.733,0.386 -0.536,0.83 -0.289,1.854 -0.488,0.974 0.29,0.58 -2.145,2.288 -1.167,0.395 -0.928,-1.171 0.199,-0.097 0.339,-0.295 0.245,-0.048 -0.198,-1.603 0.391,-0.975 0.586,-0.878 0.293,-1.313 -0.488,-1.415 -1.12,-0.246 -1.264,0.439 -0.879,0.681 -1.168,1.95 -0.637,0.83 -0.826,0.338 -0.729,0.589 -1.269,2.53 -0.681,0.584 -0.246,-1.414 0.149,-3.066 0.585,-3.07 1.119,-1.415 0.391,-0.241 0.291,-0.536 v -0.536 l -0.39,-0.241 H 376.7 l -0.927,-0.391 -0.536,-0.975 0.242,-1.752 h -0.048 l -8.28,2.384 -1.901,1.266 -0.927,0.048 -0.536,-0.778 0.344,-1.994 -0.73,-0.394 -0.83,0.245 -1.607,1.072 -0.927,0.246 -3.017,-0.782 -0.975,0.242 -2.631,3.263 -1.511,1.221 -1.169,-0.826 0.146,-0.589 0.097,-0.482 0.047,-0.54 v -0.73 l 0.15,-0.681 0.29,-0.391 0.343,-0.341 0.241,-0.435 0.343,-1.169 -0.097,-0.395 -0.878,-1.898 -0.242,-0.342 -0.44,-0.339 -1.071,-0.241 -0.633,0.874 -0.487,1.318 -0.685,1.168 -0.434,0.289 -0.44,0.098 -0.342,-0.291 -0.145,-0.829 -0.145,-0.682 -0.391,-0.197 -1.024,0.101 v -0.632 l 0.729,-0.295 0.637,-0.681 0.145,-0.684 -0.68,-0.339 -0.685,0.194 -2.24,1.607 -0.73,0.246 -0.584,-0.492 -0.636,-0.628 -0.73,-0.343 -0.777,0.343 -1.414,1.652 -0.782,0.587 -0.874,0.097 -2.534,-0.636 -0.145,-0.532 -0.44,-2.486 -0.438,-0.922 -1.362,-0.54 -3.413,-0.242 -0.777,-0.488 0.927,-0.874 1.018,-1.418 0.344,-1.313 -1.072,-0.584 -1.12,0.488 -2.192,2.336 -1.12,0.829 -0.681,0.146 -0.588,-0.194 -0.536,-0.487 -0.483,-0.778 -0.101,-0.83 0.343,-0.733 2.486,-3.408 0.338,-1.41 -0.778,-1.756 -1.607,1.659 -1.95,-0.196 -2.047,-0.779 -1.801,-0.149 -1.708,0.44 -3.408,-0.097 -0.878,-0.439 -0.436,-0.975 0.485,-0.439 0.293,-0.729 -0.048,-0.827 -0.439,-0.684 -0.584,0.096 -2.095,1.999 -0.778,-0.049 -0.536,-0.535 -0.487,-0.633 -0.879,-0.439 -0.535,-0.729 -0.343,-0.146 -0.435,0.097 -0.83,0.339 -0.439,0.048 -2.143,-1.362 0.584,-2.876 1.269,-3.698 -0.048,-3.9 -0.685,0.926 -0.387,0.193 -0.391,-0.338 -1.752,-2.095 -0.246,-0.927 0.294,-1.36 -0.294,0.047 -0.536,-0.047 -0.242,0.047 1.024,-1.611 1.023,-0.878 2.481,-0.629 0.247,-0.246 0.193,-0.438 0.242,-0.339 0.39,0.097 0.198,0.829 v 0.826 l 0.777,1.023 0.294,0.194 0.681,0.101 0.342,0.193 -0.487,0.975 -1.12,1.12 -0.487,0.975 0.922,-0.637 0.878,-0.926 0.633,-1.314 0.246,-1.804 v -0.923 l -0.097,-0.488 -0.294,-0.386 -1.265,-1.072 -0.685,-0.246 -0.681,0.048 -0.68,0.44 -0.83,-1.12 -2.583,0.193 -0.826,-1.168 v -1.512 l 1.265,-1.897 0.343,-1.414 2.384,-3.215 -0.289,-0.536 -1.27,-0.241 -0.729,-0.684 -1.462,-2.68 2.191,0.923 0.734,0.149 1.216,-0.343 0.246,0.049 0.29,0.391 0.391,0.342 0.778,0.483 0.926,0.198 2.824,-0.198 1.805,0.637 0.778,-0.097 0.729,-0.926 1.023,1.168 1.221,-0.096 1.216,-0.879 1.072,-1.217 -0.729,0.097 -1.511,0.878 -0.632,0.049 -0.536,-0.536 -0.246,-0.875 0.145,-0.781 0.589,-0.342 0.241,-0.242 0.048,-0.536 -0.048,-0.536 -0.096,-0.246 h -1.221 l -0.632,0.193 -1.512,0.975 -0.777,0.295 -1.511,-0.145 -1.414,-0.536 -1.458,-0.242 -1.511,0.73 h -0.488 l -0.245,-0.831 0.101,-0.971 0.632,-0.636 v -0.339 l -0.145,-0.341 -0.294,-0.15 -0.83,0.294 -0.339,-0.096 -0.342,-0.681 -0.193,-1.708 0.29,-1.947 0.439,-1.849 0.246,-1.365 -0.198,-0.729 -0.338,-0.783 -0.246,-0.781 0.145,-0.729 0.584,-0.584 0.342,0.338 0.295,0.782 0.536,0.734 0.584,0.24 0.145,-0.437 0.048,-0.826 0.294,-1.024 0.439,-0.539 0.729,-0.678 0.778,-0.49 0.487,-0.051 1.121,0.59 0.584,-0.879 0.197,-1.804 -0.049,-2.192 -0.245,-1.801 v -0.777 l 0.245,-0.975 0.44,-0.685 0.536,-0.436 0.435,-0.588 0.197,-1.119 0.049,-0.73 0.145,-0.877 0.194,-0.826 0.245,-0.637 0.294,-0.291 0.29,0.098 0.245,0.289 0.242,0.443 0.343,0.34 0.386,-0.147 0.392,-0.289 0.341,-0.197 0.291,0.145 0.246,0.246 0.241,0.193 0.343,-0.049 0.193,-0.193 0.439,-0.637 0.194,-0.242 0.733,-0.338 1.559,-0.148 2.583,-1.121 1.023,-1.317 1.8,-1.652 1.169,-1.998 0.439,-0.44 0.681,-0.293 0.343,0.293 0.68,1.657 0.633,0.632 h 0.684 l 1.41,-0.39 0.681,0.193 0.54,0.441 0.484,0.684 1.172,2.141 0.145,0.633 0.049,1.169 0.144,0.877 0.343,0.975 0.44,0.879 0.434,0.58 1.366,0.684 1.608,-0.145 1.607,-0.684 3.263,-2.63 0.83,-1.266 0.339,-1.559 -0.436,-1.709 -1.072,-0.968 -1.172,-0.78 -0.777,-1.072 -0.146,-0.828 v -1.656 l -0.487,-1.559 v -0.832 l 0.193,-0.775 0.294,-0.682 0.194,-0.781 -0.048,-0.879 -0.29,-1.602 v -3.509 l -0.685,-1.27 -1.849,-2.289 -0.681,-2.877 -1.805,-4.527 -0.145,-0.83 -0.097,-0.875 -0.149,-0.825 -0.289,-0.685 -0.391,-0.682 1.655,-0.68 1.12,0.047 0.926,0.485 0.441,0.636 0.631,1.704 0.488,0.586 1.51,0.828 2.047,1.898 0.778,0.197 2.727,-0.246 2.341,0.246 0.584,0.485 0.729,1.998 0.536,0.781 1.216,-0.295 1.024,-0.633 1.023,-0.144 1.221,1.119 0.923,0.584 3.021,0.392 0.976,0.68 2.871,2.971 0.83,0.539 0.927,0.289 1.849,0.049 1.023,-0.68 0.536,-1.512 0.343,-1.804 0.484,-1.555 0.587,-0.488 h 0.585 l 1.216,0.633 0.777,1.023 -0.29,1.168 -1.07,1.998 0.047,1.266 0.488,0.486 0.681,-0.145 0.68,-0.584 0.295,-0.486 0.439,-1.318 0.242,-0.436 0.342,-0.197 0.242,0.053 0.246,0.144 h 0.39 l 1.559,-0.83 2.337,-2.877 1.511,-0.969 1.36,-0.294 0.393,-0.243 0.342,-0.535 0.047,-0.488 0.049,-0.486 0.193,-0.586 0.831,-1.071 0.875,-0.537 1.023,-0.148 0.975,0.099 2.533,0.875 H 388 l 0.585,-1.023 0.342,-1.457 0.488,-1.463 0.971,-0.926 8.138,-0.73 0.434,-0.242 0.295,-0.342 0.145,-0.682 -0.145,-0.441 -0.242,-0.436 -0.101,-0.685 0.101,-1.508 0.339,-0.877 4.286,-3.602 1.268,-1.515 3.655,-6.039 1.314,-1.559 1.606,-1.168 3.557,-1.559 0.633,-0.632 1.315,-1.854 0.636,-0.875 0.584,0.098 0.535,0.486 0.536,0.291 0.391,-0.098 0.73,-0.529 0.39,-0.15 0.388,0.197 0.195,0.436 0.146,0.535 0.247,0.488 1.119,1.023 1.265,0.733 1.314,0.435 3.02,-0.144 0.681,0.191 0.783,0.735 0.487,1.023 0.386,1.072 0.589,0.926 0.729,0.338 0.487,-0.391 0.44,-0.535 0.584,-0.097 0.68,0.144 h 0.681 l 1.318,-0.433 0.927,-0.735 1.41,-2.191 0.781,-0.926 0.923,-0.436 3.118,-0.197 5.995,-2.191 1.265,0.826 -0.294,0.732 -0.339,1.121 -0.294,1.215 v 0.928 l 0.342,0.633 0.487,0.148 0.537,0.049 0.487,0.242 0.193,0.391 0.097,0.293 0.098,1.508 -0.048,0.24 -0.098,0.246 -0.097,0.977 -0.097,0.293 -0.051,0.339 0.101,0.684 0.192,0.58 0.295,0.443 0.632,0.627 3.215,1.122 0.68,0.734 0.05,0.926 -0.438,2.047 0.196,1.216 0.387,0.633 0.535,0.44 1.071,0.535 -0.825,0.728 -0.293,0.145 0.535,0.295 6.332,0.974 2.439,1.024 0.926,0.633 0.488,0.974 -0.343,1.459 -0.633,0.733 -3.948,1.607 -0.338,0.391 -0.246,1.023 0.145,0.826 0.293,0.778 0.194,0.927 -0.242,1.756 -0.729,0.584 -0.344,0.139 -0.243,-0.529 -0.683,-2.192 -0.535,1.559 -0.29,1.752 -0.148,1.806 -0.05,1.604 0.15,1.756 -0.15,0.732 -1.216,0.58 -0.391,0.735 -0.536,1.998 -1.997,4.088 -0.487,1.416 -0.098,0.828 0.913,0.729 -0.004,0.031 -1.004,-0.76 -0.049,2.24 -0.098,0.435 -0.438,0.344 -1.559,2.19 0.293,0.826 -0.097,0.685 -0.246,0.633 -0.144,0.826 v 1.563 l 0.144,0.482 0.295,0.393 0.146,0.39 -0.294,0.487 -0.585,0.486 -2.678,1.461 -1.704,0.047 -0.879,0.295 -0.924,1.123 -0.294,1.605 0.098,3.604 -0.098,1.951 -1.265,6.573 -1.412,3.993 -2.438,4.778 -0.923,1.265 -3.653,2.531 -0.976,1.317 -0.343,1.801 0.198,2.143 0.488,2.047 0.535,1.414 1.217,2.095 1.312,1.607 1.415,1.169 7.99,3.118 9.693,1.119 6.888,-1.533 0.37,1.437 1.656,3.118 0.681,1.608 2.245,6.333 0.518,2.426 0.65,3.178 0.681,1.603 -0.343,1.318 0.057,0.078 -0.004,0.019 0.826,1.119 2.143,1.221 4.533,-0.1 0.706,0.971 -0.857,-0.044 -2.822,1.119 0.104,0.055 -0.104,0.042 1.216,0.632 3.168,0.245 1.703,1.415 0.927,-0.588 0.196,1.414 z m -189.446,-66.981 -1.265,0.877 -0.975,0.34 -1.608,0.391 -1.559,0.83 -0.584,0.535 -0.294,0.436 -0.585,1.513 -0.777,1.121 -2.095,0.975 -1.805,1.312 -1.752,0.632 -0.878,0.537 -0.875,0.193 -2.046,-0.531 -1.366,0.729 -0.826,-0.585 -1.269,-1.609 -0.826,-0.34 -0.636,0.242 -0.633,0.443 -0.777,0.241 -0.246,-0.145 -0.681,-0.683 -0.39,-0.147 -0.29,0.147 -0.392,0.683 -0.241,0.145 -0.439,0.387 -0.734,1.756 -0.435,0.386 -1.268,-0.386 -3.361,-2.729 -5.455,-0.58 -1.317,-1.17 -0.145,-1.467 -0.048,-2.041 -0.391,-1.463 -1.169,0.193 -0.584,0.44 -0.145,0.439 -0.048,0.877 -0.053,0.34 -0.144,0.438 -0.145,0.39 -0.097,0.145 -0.734,-0.047 -0.241,-0.242 -0.193,-0.539 -0.44,-1.02 -0.488,-0.584 -1.216,-0.685 -0.54,-0.483 -0.387,-0.783 -0.196,-0.83 -0.194,-1.945 0.194,-1.073 v -0.631 l -0.339,-0.295 h -0.246 l -0.193,0.098 -0.146,0.244 -0.048,0.436 -0.101,1.023 -0.241,0.782 -1.704,3.166 -0.976,0.976 -1.119,0.387 -1.463,0.049 -0.193,-0.436 v -0.391 l -0.101,-0.246 -0.584,-0.242 h -0.632 l -2.047,0.926 1.072,-1.414 1.071,-1.072 0.536,-0.68 0.878,-1.607 0.83,-1.073 1.704,-3.363 0.488,-1.604 0.338,-0.83 -0.826,0.291 -0.878,-0.242 -0.487,-0.781 0.342,-1.266 -0.733,-0.584 -0.633,0.584 -0.632,0.975 -0.681,0.488 -0.83,-0.342 0.246,-0.878 0.68,-1.168 0.44,-1.122 -2.047,0.588 -0.487,-0.345 v -0.629 l 0.294,-0.877 0.633,-1.266 1.119,-1.023 1.265,-0.44 h 2.534 l 0.879,-0.777 1.41,-3.461 0.733,-0.777 2.679,-0.493 1.511,-0.626 0.874,-0.975 -1.458,-2.293 -0.246,-0.731 -0.242,-1.509 -0.197,-0.489 -0.488,-0.191 -0.483,0.191 -0.488,0.34 -0.584,0.198 -0.391,-0.295 -0.342,-0.682 -0.681,-1.559 -1.462,-2.289 -0.242,-0.683 -0.439,-1.508 -0.295,-0.535 -0.289,-0.102 -1.024,0.102 -0.048,-0.293 v -0.34 l 0.048,-0.295 0.097,-0.096 0.536,-0.244 0.391,-0.582 0.144,-0.83 -0.144,-0.828 1.023,-1.555 1.217,0.047 5.503,5.016 0.536,0.728 -0.194,1.662 0.049,0.676 0.39,0.637 0.44,0.584 0.29,0.68 1.072,3.023 0.341,1.605 0.194,1.61 0.049,2.726 0.096,0.344 0.294,0.24 0.488,0.784 1.12,1.021 1.168,0.731 0.295,0.046 0.728,0.44 0.294,0.242 0.388,0.049 0.438,-0.291 0.44,-0.194 0.391,0.387 0.434,0.537 0.637,0.487 0.681,0.289 0.535,-0.047 v -0.242 l 0.194,-1.119 v -0.243 l 0.294,0.047 0.096,0.098 0.146,0.144 0.294,0.243 0.338,1.269 0.343,0.488 0.536,-0.439 0.439,-0.779 0.193,-0.149 0.246,0.295 0.584,0.633 0.632,0.293 0.73,0.049 0.733,-0.198 0.584,-0.39 0.536,-1.701 2.095,0.291 1.313,1.265 -1.8,1.119 0.438,0.928 0.826,0.24 1.757,-0.193 0.874,0.145 0.584,0.392 1.12,1.463 0.637,0.434 0.632,0.197 0.584,0.342 2.583,3.554 -0.83,0.926 0.294,0.637 0.874,0.049 1.708,-1.367 0.778,0.634 0.83,1.024 0.874,0.679 -0.097,0.391 -0.096,0.44 -0.048,0.486 v 0.435 l 0.144,0.83 0.343,0.147 0.387,-0.147 0.246,-0.048 0.584,0.488 0.241,0.295 0.294,0.482 0.145,0.44 0.198,1.072 0.048,0.293 0.242,0.387 0.048,0.148 h 0.584 l 0.391,-0.197 0.246,-0.483 0.145,-0.539 0.145,-0.339 0.781,-0.782 0.73,-0.435 1.656,-0.246 -0.243,0.681 -0.341,0.391 -0.44,0.246 -0.487,0.145 0.927,0.679 2.485,-1.75 0.29,1.071 -0.584,1.167 z m 162.944,-6.966 -0.024,0.025 -0.071,0.023 h -0.245 l -0.243,-0.193 -0.246,-0.295 -0.144,-0.482 1.168,-0.686 0.589,-0.096 0.632,0.241 -0.294,0.59 -0.338,0.386 z m -115.304,86.323 1.022,0.29 0.295,0.729 -0.729,1.998 -0.584,1.072 -0.589,-0.149 -0.536,-1.362 0.049,-1.409 z m -52.998,-43.163 0.584,-0.387 0.439,-0.049 1.414,0.338 0.193,0.339 0.097,0.346 0.246,0.145 0.826,-0.196 1.317,-0.778 h 0.777 l 1.169,0.829 0.391,0.145 0.39,-0.145 0.488,-0.346 0.435,-0.145 0.391,0.39 0.342,1.173 -0.149,0.826 -0.97,1.607 -0.782,0.782 h -0.879 l -1.704,-0.491 -2.727,0.878 -1.41,0.144 -0.878,-0.096 -0.633,-0.29 -0.487,-0.54 -0.198,-0.874 0.198,-0.44 z m -36.976,-6.382 1.22,-0.097 2.535,0.633 1.313,0.1 1.12,-0.343 1.072,-0.729 1.852,-2.243 0.388,-0.826 0.096,-1.072 v -1.804 l 0.294,-1.217 0.585,-1.511 0.733,-1.366 0.532,-0.778 -0.632,-0.971 -0.339,-0.346 -0.343,-0.242 1.511,-1.608 2.095,-0.583 2.143,0.241 1.704,0.927 1.024,1.611 1.313,4.335 0.83,1.802 0.633,0.632 0.926,0.685 0.975,0.435 0.632,-0.048 0.291,-0.782 -0.584,-0.629 -0.826,-0.636 -0.44,-0.782 0.44,-0.825 1.023,-0.391 1.12,0.048 0.681,0.443 0.439,0.435 h 0.29 l 0.197,0.193 0.049,0.928 -0.049,0.684 -0.149,0.387 -0.242,0.193 h -0.342 l 0.487,0.927 0.637,0.193 h 0.681 l 0.632,0.347 0.488,-0.444 0.194,0.246 0.096,0.488 0.294,0.242 0.391,-0.049 0.387,-0.193 1.607,-1.121 0.588,0.098 0.242,0.781 -0.048,1.507 -0.145,0.048 h -0.295 l -0.241,0.145 -0.101,0.491 v 0.827 l -0.048,0.39 -0.098,0.338 -0.289,0.444 -0.536,0.629 -0.246,0.443 -0.338,0.435 -0.83,0.685 -0.343,0.728 -0.096,0.681 0.197,1.169 -0.101,0.782 -0.584,0.974 -3.751,1.849 -3.895,-0.245 -0.633,0.491 -0.733,1.024 -0.386,1.216 0.874,2.144 -0.681,0.729 -1.169,0.439 -1.022,0.145 -1.657,0.294 -0.391,-0.198 -0.342,-0.632 -0.048,-0.632 v -0.633 l -0.145,-0.681 -0.536,-1.072 -0.584,-0.635 -0.681,-0.291 -0.879,-0.048 -0.632,-0.685 v -2.627 l -0.439,-0.048 -0.878,0.483 -0.488,-0.193 0.053,-0.536 0.777,-0.536 -11.397,-1.559 -2.877,0.439 -1.51,-0.241 -0.435,-1.27 0.681,-0.777 z m 41.262,-79.302 -0.83,0.678 -0.584,0.1 -0.145,-0.438 -0.049,-0.584 -0.048,-0.635 0.44,-0.683 0.825,-0.532 0.781,0.096 0.145,0.875 -0.145,0.68 z m -28.547,24.94 -0.049,0.439 -0.097,0.293 -0.145,0.049 -0.097,0.144 -0.048,0.338 -0.1,0.151 -0.387,0.144 -0.149,-0.049 -0.049,-0.826 -0.68,-1.564 0.777,-0.873 0.049,-0.68 0.1,-0.049 1.121,1.651 0.048,0.343 -0.246,0.149 z"
             style="fill:url(#linearGradient6226);stroke:none"
             id="path6228"
             inkscape:connector-curvature="0" />
          <path
             inkscape:connector-curvature="0"
             id="path6954"
             style="fill:url(#linearGradient6226);stroke:none"
             d="m 296.859,267.338 -0.294,0.486 -0.73,0.879 -0.293,0.629 -0.049,0.636 0.097,0.733 v 0.676 l -0.194,0.735 -0.536,0.632 -1.607,0.975 -3.509,1.072 -0.826,0.048 -0.83,-0.391 -0.777,-1.024 -0.145,-0.531 -0.294,-1.563 -0.097,-0.387 -0.585,-0.294 -1.22,0.439 -0.484,-0.387 -0.149,-1.563 0.927,-0.974 1.998,-0.777 3.457,-3.313 0.439,-0.047 1.169,0.68 0.535,0.195 1.366,-0.099 0.681,-0.241 0.633,-0.439 0.583,-0.244 0.343,0.441 0.294,0.629 0.777,0.588 -0.096,0.58 z m 23.383,-31.18 -1.121,-0.385 -0.684,-1.072 0.245,-1.756 1.072,-0.974 1.217,0.634 0.729,1.557 -0.339,1.756 z m 83.641,8.672 v -2.289 l -0.148,-0.975 -0.34,-0.97 -0.536,-0.78 -0.682,-0.779 -0.637,-0.879 -0.289,-1.168 0.145,-1.361 0.391,-0.928 0.241,-0.879 -0.338,-1.168 -0.487,-0.584 -0.246,0.489 -0.193,1.07 -0.584,1.898 -0.146,2.047 -0.293,0.873 -0.779,0.977 -0.636,0.539 -0.29,0.826 0.145,1.752 -2.095,2.877 -0.343,0.877 -0.096,0.582 -0.242,0.441 -0.246,0.534 -0.097,0.925 0.15,0.637 1.071,1.41 0.532,1.51 0.342,1.314 0.537,0.975 1.119,0.439 h 1.121 l 1.221,-0.242 1.119,-0.636 0.826,-1.024 1.073,-1.703 0.148,-1.898 z m 78.768,82.717 -0.973,0.878 -0.441,0.532 -0.39,0.685 -0.923,2.289 -0.829,0.877 -1.704,0.927 -0.73,1.411 -1.515,-2.728 -1.168,-1.415 -1.512,-1.023 -1.607,-0.532 -6.088,1.459 -5.942,0.39 -5.99,1.511 -5.213,-0.39 -6.141,-0.391 -6.917,0.636 -0.777,0.291 -1.607,1.022 -1.902,0.686 -3.408,3.746 -1.414,1.169 -1.462,0.829 -1.508,0.439 -1.606,0.15 -0.536,-0.246 -1.317,-1.072 -0.635,-0.245 -0.876,0.048 -1.559,0.443 -2.192,1.313 -2.386,0.584 -1.608,1.072 -0.733,0.247 -7.304,-0.15 -0.342,0.15 -0.048,0.578 -0.048,0.444 -0.151,0.29 -1.458,1.458 -1.316,0.734 -0.536,0.145 -0.435,-0.242 -0.488,-0.782 -0.053,-0.68 0.151,-0.681 -0.098,-0.487 -0.782,-0.199 -0.68,0.831 -0.879,1.41 -0.825,0.588 -0.537,-1.805 0.29,-0.531 -0.583,-1.125 -0.633,-0.681 -0.681,-0.144 -0.733,0.386 -0.536,0.83 -0.289,1.854 -0.488,0.974 0.29,0.58 -2.145,2.288 -1.167,0.395 -0.928,-1.171 0.199,-0.097 0.339,-0.295 0.245,-0.048 -0.198,-1.603 0.391,-0.975 0.586,-0.878 0.293,-1.313 -0.488,-1.415 -1.12,-0.246 -1.264,0.439 -0.879,0.681 -1.168,1.95 -0.637,0.83 -0.826,0.338 -0.729,0.589 -1.269,2.53 -0.681,0.584 -0.246,-1.414 0.149,-3.066 0.585,-3.07 1.119,-1.415 0.391,-0.241 0.291,-0.536 v -0.536 l -0.39,-0.241 H 376.7 l -0.927,-0.391 -0.536,-0.975 0.242,-1.752 h -0.048 l -8.28,2.384 -1.901,1.266 -0.927,0.048 -0.536,-0.778 0.344,-1.994 -0.73,-0.394 -0.83,0.245 -1.607,1.072 -0.927,0.246 -3.017,-0.782 -0.975,0.242 -2.631,3.263 -1.511,1.221 -1.169,-0.826 0.146,-0.589 0.097,-0.482 0.047,-0.54 v -0.73 l 0.15,-0.681 0.29,-0.391 0.343,-0.341 0.241,-0.435 0.343,-1.169 -0.097,-0.395 -0.878,-1.898 -0.242,-0.342 -0.44,-0.339 -1.071,-0.241 -0.633,0.874 -0.487,1.318 -0.685,1.168 -0.434,0.289 -0.44,0.098 -0.342,-0.291 -0.145,-0.829 -0.145,-0.682 -0.391,-0.197 -1.024,0.101 v -0.632 l 0.729,-0.295 0.637,-0.681 0.145,-0.684 -0.68,-0.339 -0.685,0.194 -2.24,1.607 -0.73,0.246 -0.584,-0.492 -0.636,-0.628 -0.73,-0.343 -0.777,0.343 -1.414,1.652 -0.782,0.587 -0.874,0.097 -2.534,-0.636 -0.145,-0.532 -0.44,-2.486 -0.438,-0.922 -1.362,-0.54 -3.413,-0.242 -0.777,-0.488 0.927,-0.874 1.018,-1.418 0.344,-1.313 -1.072,-0.584 -1.12,0.488 -2.192,2.336 -1.12,0.829 -0.681,0.146 -0.588,-0.194 -0.536,-0.487 -0.483,-0.778 -0.101,-0.83 0.343,-0.733 2.486,-3.408 0.338,-1.41 -0.778,-1.756 -1.607,1.659 -1.95,-0.196 -2.047,-0.779 -1.801,-0.149 -1.708,0.44 -3.408,-0.097 -0.878,-0.439 -0.436,-0.975 0.485,-0.439 0.293,-0.729 -0.048,-0.827 -0.439,-0.684 -0.584,0.096 -2.095,1.999 -0.778,-0.049 -0.536,-0.535 -0.487,-0.633 -0.879,-0.439 -0.535,-0.729 -0.343,-0.146 -0.435,0.097 -0.83,0.339 -0.439,0.048 -2.143,-1.362 0.584,-2.876 1.269,-3.698 -0.048,-3.9 -0.685,0.926 -0.387,0.193 -0.391,-0.338 -1.752,-2.095 -0.246,-0.927 0.294,-1.36 -0.294,0.047 -0.536,-0.047 -0.242,0.047 1.024,-1.611 1.023,-0.878 2.481,-0.629 0.247,-0.246 0.193,-0.438 0.242,-0.339 0.39,0.097 0.198,0.829 v 0.826 l 0.777,1.023 0.294,0.194 0.681,0.101 0.342,0.193 -0.487,0.975 -1.12,1.12 -0.487,0.975 0.922,-0.637 0.878,-0.926 0.633,-1.314 0.246,-1.804 v -0.923 l -0.097,-0.488 -0.294,-0.386 -1.265,-1.072 -0.685,-0.246 -0.681,0.048 -0.68,0.44 -0.83,-1.12 -2.583,0.193 -0.826,-1.168 v -1.512 l 1.265,-1.897 0.343,-1.414 2.384,-3.215 -0.289,-0.536 -1.27,-0.241 -0.729,-0.684 -1.462,-2.68 2.191,0.923 0.734,0.149 1.216,-0.343 0.246,0.049 0.29,0.391 0.391,0.342 0.778,0.483 0.926,0.198 2.824,-0.198 1.805,0.637 0.778,-0.097 0.729,-0.926 1.023,1.168 1.221,-0.096 1.216,-0.879 1.072,-1.217 -0.729,0.097 -1.511,0.878 -0.632,0.049 -0.536,-0.536 -0.246,-0.875 0.145,-0.781 0.589,-0.342 0.241,-0.242 0.048,-0.536 -0.048,-0.536 -0.096,-0.246 h -1.221 l -0.632,0.193 -1.512,0.975 -0.777,0.295 -1.511,-0.145 -1.414,-0.536 -1.458,-0.242 -1.511,0.73 h -0.488 l -0.245,-0.831 0.101,-0.971 0.632,-0.636 v -0.339 l -0.145,-0.341 -0.294,-0.15 -0.83,0.294 -0.339,-0.096 -0.342,-0.681 -0.193,-1.708 0.29,-1.947 0.439,-1.849 0.246,-1.365 -0.198,-0.729 -0.338,-0.783 -0.246,-0.781 0.145,-0.729 0.584,-0.584 0.342,0.338 0.295,0.782 0.536,0.734 0.584,0.24 0.145,-0.437 0.048,-0.826 0.294,-1.024 0.439,-0.539 0.729,-0.678 0.778,-0.49 0.487,-0.051 1.121,0.59 0.584,-0.879 0.197,-1.804 -0.049,-2.192 -0.245,-1.801 v -0.777 l 0.245,-0.975 0.44,-0.685 0.536,-0.436 0.435,-0.588 0.197,-1.119 0.049,-0.73 0.145,-0.877 0.194,-0.826 0.245,-0.637 0.294,-0.291 0.29,0.098 0.245,0.289 0.242,0.443 0.343,0.34 0.386,-0.147 0.392,-0.289 0.341,-0.197 0.291,0.145 0.246,0.246 0.241,0.193 0.343,-0.049 0.193,-0.193 0.439,-0.637 0.194,-0.242 0.733,-0.338 1.559,-0.148 2.583,-1.121 1.023,-1.317 1.8,-1.652 1.169,-1.998 0.439,-0.44 0.681,-0.293 0.343,0.293 0.68,1.657 0.633,0.632 h 0.684 l 1.41,-0.39 0.681,0.193 0.54,0.441 0.484,0.684 1.172,2.141 0.145,0.633 0.049,1.169 0.144,0.877 0.343,0.975 0.44,0.879 0.434,0.58 1.366,0.684 1.608,-0.145 1.607,-0.684 3.263,-2.63 0.83,-1.266 0.339,-1.559 -0.436,-1.709 -1.072,-0.968 -1.172,-0.78 -0.777,-1.072 -0.146,-0.828 v -1.656 l -0.487,-1.559 v -0.832 l 0.193,-0.775 0.294,-0.682 0.194,-0.781 -0.048,-0.879 -0.29,-1.602 v -3.509 l -0.685,-1.27 -1.849,-2.289 -0.681,-2.877 -1.805,-4.527 -0.145,-0.83 -0.097,-0.875 -0.149,-0.825 -0.289,-0.685 -0.391,-0.682 1.655,-0.68 1.12,0.047 0.926,0.485 0.441,0.636 0.631,1.704 0.488,0.586 1.51,0.828 2.047,1.898 0.778,0.197 2.727,-0.246 2.341,0.246 0.584,0.485 0.729,1.998 0.536,0.781 1.216,-0.295 1.024,-0.633 1.023,-0.144 1.221,1.119 0.923,0.584 3.021,0.392 0.976,0.68 2.871,2.971 0.83,0.539 0.927,0.289 1.849,0.049 1.023,-0.68 0.536,-1.512 0.343,-1.804 0.484,-1.555 0.587,-0.488 h 0.585 l 1.216,0.633 0.777,1.023 -0.29,1.168 -1.07,1.998 0.047,1.266 0.488,0.486 0.681,-0.145 0.68,-0.584 0.295,-0.486 0.439,-1.318 0.242,-0.436 0.342,-0.197 0.242,0.053 0.246,0.144 h 0.39 l 1.559,-0.83 2.337,-2.877 1.511,-0.969 1.36,-0.294 0.393,-0.243 0.342,-0.535 0.047,-0.488 0.049,-0.486 0.193,-0.586 0.831,-1.071 0.875,-0.537 1.023,-0.148 0.975,0.099 2.533,0.875 H 388 l 0.585,-1.023 0.342,-1.457 0.488,-1.463 0.971,-0.926 8.138,-0.73 0.434,-0.242 0.295,-0.342 0.145,-0.682 -0.145,-0.441 -0.242,-0.436 -0.101,-0.685 0.101,-1.508 0.339,-0.877 4.286,-3.602 1.268,-1.515 3.655,-6.039 1.314,-1.559 1.606,-1.168 3.557,-1.559 0.633,-0.632 1.315,-1.854 0.636,-0.875 0.584,0.098 0.535,0.486 0.536,0.291 0.391,-0.098 0.73,-0.529 0.39,-0.15 0.388,0.197 0.195,0.436 0.146,0.535 0.247,0.488 1.119,1.023 1.265,0.733 1.314,0.435 3.02,-0.144 0.681,0.191 0.783,0.735 0.487,1.023 0.386,1.072 0.589,0.926 0.729,0.338 0.487,-0.391 0.44,-0.535 0.584,-0.097 0.68,0.144 h 0.681 l 1.318,-0.433 0.927,-0.735 1.41,-2.191 0.781,-0.926 0.923,-0.436 3.118,-0.197 5.995,-2.191 1.265,0.826 -0.294,0.732 -0.339,1.121 -0.294,1.215 v 0.928 l 0.342,0.633 0.487,0.148 0.537,0.049 0.487,0.242 0.193,0.391 0.097,0.293 0.098,1.508 -0.048,0.24 -0.098,0.246 -0.097,0.977 -0.097,0.293 -0.051,0.339 0.101,0.684 0.192,0.58 0.295,0.443 0.632,0.627 3.215,1.122 0.68,0.734 0.05,0.926 -0.438,2.047 0.196,1.216 0.387,0.633 0.535,0.44 1.071,0.535 -0.825,0.728 -0.293,0.145 0.535,0.295 6.332,0.974 2.439,1.024 0.926,0.633 0.488,0.974 -0.343,1.459 -0.633,0.733 -3.948,1.607 -0.338,0.391 -0.246,1.023 0.145,0.826 0.293,0.778 0.194,0.927 -0.242,1.756 -0.729,0.584 -0.344,0.139 -0.243,-0.529 -0.683,-2.192 -0.535,1.559 -0.29,1.752 -0.148,1.806 -0.05,1.604 0.15,1.756 -0.15,0.732 -1.216,0.58 -0.391,0.735 -0.536,1.998 -1.997,4.088 -0.487,1.416 -0.098,0.828 0.913,0.729 -0.004,0.031 -1.004,-0.76 -0.049,2.24 -0.098,0.435 -0.438,0.344 -1.559,2.19 0.293,0.826 -0.097,0.685 -0.246,0.633 -0.144,0.826 v 1.563 l 0.144,0.482 0.295,0.393 0.146,0.39 -0.294,0.487 -0.585,0.486 -2.678,1.461 -1.704,0.047 -0.879,0.295 -0.924,1.123 -0.294,1.605 0.098,3.604 -0.098,1.951 -1.265,6.573 -1.412,3.993 -2.438,4.778 -0.923,1.265 -3.653,2.531 -0.976,1.317 -0.343,1.801 0.198,2.143 0.488,2.047 0.535,1.414 1.217,2.095 1.312,1.607 1.415,1.169 7.99,3.118 9.693,1.119 6.888,-1.533 0.37,1.437 1.656,3.118 0.681,1.608 2.245,6.333 0.518,2.426 0.65,3.178 0.681,1.603 -0.343,1.318 0.057,0.078 -0.004,0.019 0.826,1.119 2.143,1.221 4.533,-0.1 0.706,0.971 -0.857,-0.044 -2.822,1.119 0.104,0.055 -0.104,0.042 1.216,0.632 3.168,0.245 1.703,1.415 0.927,-0.588 0.196,1.414 z m -189.446,-66.981 -1.265,0.877 -0.975,0.34 -1.608,0.391 -1.559,0.83 -0.584,0.535 -0.294,0.436 -0.585,1.513 -0.777,1.121 -2.095,0.975 -1.805,1.312 -1.752,0.632 -0.878,0.537 -0.875,0.193 -2.046,-0.531 -1.366,0.729 -0.826,-0.585 -1.269,-1.609 -0.826,-0.34 -0.636,0.242 -0.633,0.443 -0.777,0.241 -0.246,-0.145 -0.681,-0.683 -0.39,-0.147 -0.29,0.147 -0.392,0.683 -0.241,0.145 -0.439,0.387 -0.734,1.756 -0.435,0.386 -1.268,-0.386 -3.361,-2.729 -5.455,-0.58 -1.317,-1.17 -0.145,-1.467 -0.048,-2.041 -0.391,-1.463 -1.169,0.193 -0.584,0.44 -0.145,0.439 -0.048,0.877 -0.053,0.34 -0.144,0.438 -0.145,0.39 -0.097,0.145 -0.734,-0.047 -0.241,-0.242 -0.193,-0.539 -0.44,-1.02 -0.488,-0.584 -1.216,-0.685 -0.54,-0.483 -0.387,-0.783 -0.196,-0.83 -0.194,-1.945 0.194,-1.073 v -0.631 l -0.339,-0.295 h -0.246 l -0.193,0.098 -0.146,0.244 -0.048,0.436 -0.101,1.023 -0.241,0.782 -1.704,3.166 -0.976,0.976 -1.119,0.387 -1.463,0.049 -0.193,-0.436 v -0.391 l -0.101,-0.246 -0.584,-0.242 h -0.632 l -2.047,0.926 1.072,-1.414 1.071,-1.072 0.536,-0.68 0.878,-1.607 0.83,-1.073 1.704,-3.363 0.488,-1.604 0.338,-0.83 -0.826,0.291 -0.878,-0.242 -0.487,-0.781 0.342,-1.266 -0.733,-0.584 -0.633,0.584 -0.632,0.975 -0.681,0.488 -0.83,-0.342 0.246,-0.878 0.68,-1.168 0.44,-1.122 -2.047,0.588 -0.487,-0.345 v -0.629 l 0.294,-0.877 0.633,-1.266 1.119,-1.023 1.265,-0.44 h 2.534 l 0.879,-0.777 1.41,-3.461 0.733,-0.777 2.679,-0.493 1.511,-0.626 0.874,-0.975 -1.458,-2.293 -0.246,-0.731 -0.242,-1.509 -0.197,-0.489 -0.488,-0.191 -0.483,0.191 -0.488,0.34 -0.584,0.198 -0.391,-0.295 -0.342,-0.682 -0.681,-1.559 -1.462,-2.289 -0.242,-0.683 -0.439,-1.508 -0.295,-0.535 -0.289,-0.102 -1.024,0.102 -0.048,-0.293 v -0.34 l 0.048,-0.295 0.097,-0.096 0.536,-0.244 0.391,-0.582 0.144,-0.83 -0.144,-0.828 1.023,-1.555 1.217,0.047 5.503,5.016 0.536,0.728 -0.194,1.662 0.049,0.676 0.39,0.637 0.44,0.584 0.29,0.68 1.072,3.023 0.341,1.605 0.194,1.61 0.049,2.726 0.096,0.344 0.294,0.24 0.488,0.784 1.12,1.021 1.168,0.731 0.295,0.046 0.728,0.44 0.294,0.242 0.388,0.049 0.438,-0.291 0.44,-0.194 0.391,0.387 0.434,0.537 0.637,0.487 0.681,0.289 0.535,-0.047 v -0.242 l 0.194,-1.119 v -0.243 l 0.294,0.047 0.096,0.098 0.146,0.144 0.294,0.243 0.338,1.269 0.343,0.488 0.536,-0.439 0.439,-0.779 0.193,-0.149 0.246,0.295 0.584,0.633 0.632,0.293 0.73,0.049 0.733,-0.198 0.584,-0.39 0.536,-1.701 2.095,0.291 1.313,1.265 -1.8,1.119 0.438,0.928 0.826,0.24 1.757,-0.193 0.874,0.145 0.584,0.392 1.12,1.463 0.637,0.434 0.632,0.197 0.584,0.342 2.583,3.554 -0.83,0.926 0.294,0.637 0.874,0.049 1.708,-1.367 0.778,0.634 0.83,1.024 0.874,0.679 -0.097,0.391 -0.096,0.44 -0.048,0.486 v 0.435 l 0.144,0.83 0.343,0.147 0.387,-0.147 0.246,-0.048 0.584,0.488 0.241,0.295 0.294,0.482 0.145,0.44 0.198,1.072 0.048,0.293 0.242,0.387 0.048,0.148 h 0.584 l 0.391,-0.197 0.246,-0.483 0.145,-0.539 0.145,-0.339 0.781,-0.782 0.73,-0.435 1.656,-0.246 -0.243,0.681 -0.341,0.391 -0.44,0.246 -0.487,0.145 0.927,0.679 2.485,-1.75 0.29,1.071 -0.584,1.167 z m 162.944,-6.966 -0.024,0.025 -0.071,0.023 h -0.245 l -0.243,-0.193 -0.246,-0.295 -0.144,-0.482 1.168,-0.686 0.589,-0.096 0.632,0.241 -0.294,0.59 -0.338,0.386 z m -115.304,86.323 1.022,0.29 0.295,0.729 -0.729,1.998 -0.584,1.072 -0.589,-0.149 -0.536,-1.362 0.049,-1.409 z m -52.998,-43.163 0.584,-0.387 0.439,-0.049 1.414,0.338 0.193,0.339 0.097,0.346 0.246,0.145 0.826,-0.196 1.317,-0.778 h 0.777 l 1.169,0.829 0.391,0.145 0.39,-0.145 0.488,-0.346 0.435,-0.145 0.391,0.39 0.342,1.173 -0.149,0.826 -0.97,1.607 -0.782,0.782 h -0.879 l -1.704,-0.491 -2.727,0.878 -1.41,0.144 -0.878,-0.096 -0.633,-0.29 -0.487,-0.54 -0.198,-0.874 0.198,-0.44 z m -36.976,-6.382 1.22,-0.097 2.535,0.633 1.313,0.1 1.12,-0.343 1.072,-0.729 1.852,-2.243 0.388,-0.826 0.096,-1.072 v -1.804 l 0.294,-1.217 0.585,-1.511 0.733,-1.366 0.532,-0.778 -0.632,-0.971 -0.339,-0.346 -0.343,-0.242 1.511,-1.608 2.095,-0.583 2.143,0.241 1.704,0.927 1.024,1.611 1.313,4.335 0.83,1.802 0.633,0.632 0.926,0.685 0.975,0.435 0.632,-0.048 0.291,-0.782 -0.584,-0.629 -0.826,-0.636 -0.44,-0.782 0.44,-0.825 1.023,-0.391 1.12,0.048 0.681,0.443 0.439,0.435 h 0.29 l 0.197,0.193 0.049,0.928 -0.049,0.684 -0.149,0.387 -0.242,0.193 h -0.342 l 0.487,0.927 0.637,0.193 h 0.681 l 0.632,0.347 0.488,-0.444 0.194,0.246 0.096,0.488 0.294,0.242 0.391,-0.049 0.387,-0.193 1.607,-1.121 0.588,0.098 0.242,0.781 -0.048,1.507 -0.145,0.048 h -0.295 l -0.241,0.145 -0.101,0.491 v 0.827 l -0.048,0.39 -0.098,0.338 -0.289,0.444 -0.536,0.629 -0.246,0.443 -0.338,0.435 -0.83,0.685 -0.343,0.728 -0.096,0.681 0.197,1.169 -0.101,0.782 -0.584,0.974 -3.751,1.849 -3.895,-0.245 -0.633,0.491 -0.733,1.024 -0.386,1.216 0.874,2.144 -0.681,0.729 -1.169,0.439 -1.022,0.145 -1.657,0.294 -0.391,-0.198 -0.342,-0.632 -0.048,-0.632 v -0.633 l -0.145,-0.681 -0.536,-1.072 -0.584,-0.635 -0.681,-0.291 -0.879,-0.048 -0.632,-0.685 v -2.627 l -0.439,-0.048 -0.878,0.483 -0.488,-0.193 0.053,-0.536 0.777,-0.536 -11.397,-1.559 -2.877,0.439 -1.51,-0.241 -0.435,-1.27 0.681,-0.777 z m 41.262,-79.302 -0.83,0.678 -0.584,0.1 -0.145,-0.438 -0.049,-0.584 -0.048,-0.635 0.44,-0.683 0.825,-0.532 0.781,0.096 0.145,0.875 -0.145,0.68 z m -28.547,24.94 -0.049,0.439 -0.097,0.293 -0.145,0.049 -0.097,0.144 -0.048,0.338 -0.1,0.151 -0.387,0.144 -0.149,-0.049 -0.049,-0.826 -0.68,-1.564 0.777,-0.873 0.049,-0.68 0.1,-0.049 1.121,1.651 0.048,0.343 -0.246,0.149 z" />
          <path
             d="m 296.859,267.338 -0.294,0.486 -0.73,0.879 -0.293,0.629 -0.049,0.636 0.097,0.733 v 0.676 l -0.194,0.735 -0.536,0.632 -1.607,0.975 -3.509,1.072 -0.826,0.048 -0.83,-0.391 -0.777,-1.024 -0.145,-0.531 -0.294,-1.563 -0.097,-0.387 -0.585,-0.294 -1.22,0.439 -0.484,-0.387 -0.149,-1.563 0.927,-0.974 1.998,-0.777 3.457,-3.313 0.439,-0.047 1.169,0.68 0.535,0.195 1.366,-0.099 0.681,-0.241 0.633,-0.439 0.583,-0.244 0.343,0.441 0.294,0.629 0.777,0.588 -0.096,0.58 z m 23.383,-31.18 -1.121,-0.385 -0.684,-1.072 0.245,-1.756 1.072,-0.974 1.217,0.634 0.729,1.557 -0.339,1.756 z m 83.641,8.672 v -2.289 l -0.148,-0.975 -0.34,-0.97 -0.536,-0.78 -0.682,-0.779 -0.637,-0.879 -0.289,-1.168 0.145,-1.361 0.391,-0.928 0.241,-0.879 -0.338,-1.168 -0.487,-0.584 -0.246,0.489 -0.193,1.07 -0.584,1.898 -0.146,2.047 -0.293,0.873 -0.779,0.977 -0.636,0.539 -0.29,0.826 0.145,1.752 -2.095,2.877 -0.343,0.877 -0.096,0.582 -0.242,0.441 -0.246,0.534 -0.097,0.925 0.15,0.637 1.071,1.41 0.532,1.51 0.342,1.314 0.537,0.975 1.119,0.439 h 1.121 l 1.221,-0.242 1.119,-0.636 0.826,-1.024 1.073,-1.703 0.148,-1.898 z m 78.768,82.717 -0.973,0.878 -0.441,0.532 -0.39,0.685 -0.923,2.289 -0.829,0.877 -1.704,0.927 -0.73,1.411 -1.515,-2.728 -1.168,-1.415 -1.512,-1.023 -1.607,-0.532 -6.088,1.459 -5.942,0.39 -5.99,1.511 -5.213,-0.39 -6.141,-0.391 -6.917,0.636 -0.777,0.291 -1.607,1.022 -1.902,0.686 -3.408,3.746 -1.414,1.169 -1.462,0.829 -1.508,0.439 -1.606,0.15 -0.536,-0.246 -1.317,-1.072 -0.635,-0.245 -0.876,0.048 -1.559,0.443 -2.192,1.313 -2.386,0.584 -1.608,1.072 -0.733,0.247 -7.304,-0.15 -0.342,0.15 -0.048,0.578 -0.048,0.444 -0.151,0.29 -1.458,1.458 -1.316,0.734 -0.536,0.145 -0.435,-0.242 -0.488,-0.782 -0.053,-0.68 0.151,-0.681 -0.098,-0.487 -0.782,-0.199 -0.68,0.831 -0.879,1.41 -0.825,0.588 -0.537,-1.805 0.29,-0.531 -0.583,-1.125 -0.633,-0.681 -0.681,-0.144 -0.733,0.386 -0.536,0.83 -0.289,1.854 -0.488,0.974 0.29,0.58 -2.145,2.288 -1.167,0.395 -0.928,-1.171 0.199,-0.097 0.339,-0.295 0.245,-0.048 -0.198,-1.603 0.391,-0.975 0.586,-0.878 0.293,-1.313 -0.488,-1.415 -1.12,-0.246 -1.264,0.439 -0.879,0.681 -1.168,1.95 -0.637,0.83 -0.826,0.338 -0.729,0.589 -1.269,2.53 -0.681,0.584 -0.246,-1.414 0.149,-3.066 0.585,-3.07 1.119,-1.415 0.391,-0.241 0.291,-0.536 v -0.536 l -0.39,-0.241 H 376.7 l -0.927,-0.391 -0.536,-0.975 0.242,-1.752 h -0.048 l -8.28,2.384 -1.901,1.266 -0.927,0.048 -0.536,-0.778 0.344,-1.994 -0.73,-0.394 -0.83,0.245 -1.607,1.072 -0.927,0.246 -3.017,-0.782 -0.975,0.242 -2.631,3.263 -1.511,1.221 -1.169,-0.826 0.146,-0.589 0.097,-0.482 0.047,-0.54 v -0.73 l 0.15,-0.681 0.29,-0.391 0.343,-0.341 0.241,-0.435 0.343,-1.169 -0.097,-0.395 -0.878,-1.898 -0.242,-0.342 -0.44,-0.339 -1.071,-0.241 -0.633,0.874 -0.487,1.318 -0.685,1.168 -0.434,0.289 -0.44,0.098 -0.342,-0.291 -0.145,-0.829 -0.145,-0.682 -0.391,-0.197 -1.024,0.101 v -0.632 l 0.729,-0.295 0.637,-0.681 0.145,-0.684 -0.68,-0.339 -0.685,0.194 -2.24,1.607 -0.73,0.246 -0.584,-0.492 -0.636,-0.628 -0.73,-0.343 -0.777,0.343 -1.414,1.652 -0.782,0.587 -0.874,0.097 -2.534,-0.636 -0.145,-0.532 -0.44,-2.486 -0.438,-0.922 -1.362,-0.54 -3.413,-0.242 -0.777,-0.488 0.927,-0.874 1.018,-1.418 0.344,-1.313 -1.072,-0.584 -1.12,0.488 -2.192,2.336 -1.12,0.829 -0.681,0.146 -0.588,-0.194 -0.536,-0.487 -0.483,-0.778 -0.101,-0.83 0.343,-0.733 2.486,-3.408 0.338,-1.41 -0.778,-1.756 -1.607,1.659 -1.95,-0.196 -2.047,-0.779 -1.801,-0.149 -1.708,0.44 -3.408,-0.097 -0.878,-0.439 -0.436,-0.975 0.485,-0.439 0.293,-0.729 -0.048,-0.827 -0.439,-0.684 -0.584,0.096 -2.095,1.999 -0.778,-0.049 -0.536,-0.535 -0.487,-0.633 -0.879,-0.439 -0.535,-0.729 -0.343,-0.146 -0.435,0.097 -0.83,0.339 -0.439,0.048 -2.143,-1.362 0.584,-2.876 1.269,-3.698 -0.048,-3.9 -0.685,0.926 -0.387,0.193 -0.391,-0.338 -1.752,-2.095 -0.246,-0.927 0.294,-1.36 -0.294,0.047 -0.536,-0.047 -0.242,0.047 1.024,-1.611 1.023,-0.878 2.481,-0.629 0.247,-0.246 0.193,-0.438 0.242,-0.339 0.39,0.097 0.198,0.829 v 0.826 l 0.777,1.023 0.294,0.194 0.681,0.101 0.342,0.193 -0.487,0.975 -1.12,1.12 -0.487,0.975 0.922,-0.637 0.878,-0.926 0.633,-1.314 0.246,-1.804 v -0.923 l -0.097,-0.488 -0.294,-0.386 -1.265,-1.072 -0.685,-0.246 -0.681,0.048 -0.68,0.44 -0.83,-1.12 -2.583,0.193 -0.826,-1.168 v -1.512 l 1.265,-1.897 0.343,-1.414 2.384,-3.215 -0.289,-0.536 -1.27,-0.241 -0.729,-0.684 -1.462,-2.68 2.191,0.923 0.734,0.149 1.216,-0.343 0.246,0.049 0.29,0.391 0.391,0.342 0.778,0.483 0.926,0.198 2.824,-0.198 1.805,0.637 0.778,-0.097 0.729,-0.926 1.023,1.168 1.221,-0.096 1.216,-0.879 1.072,-1.217 -0.729,0.097 -1.511,0.878 -0.632,0.049 -0.536,-0.536 -0.246,-0.875 0.145,-0.781 0.589,-0.342 0.241,-0.242 0.048,-0.536 -0.048,-0.536 -0.096,-0.246 h -1.221 l -0.632,0.193 -1.512,0.975 -0.777,0.295 -1.511,-0.145 -1.414,-0.536 -1.458,-0.242 -1.511,0.73 h -0.488 l -0.245,-0.831 0.101,-0.971 0.632,-0.636 v -0.339 l -0.145,-0.341 -0.294,-0.15 -0.83,0.294 -0.339,-0.096 -0.342,-0.681 -0.193,-1.708 0.29,-1.947 0.439,-1.849 0.246,-1.365 -0.198,-0.729 -0.338,-0.783 -0.246,-0.781 0.145,-0.729 0.584,-0.584 0.342,0.338 0.295,0.782 0.536,0.734 0.584,0.24 0.145,-0.437 0.048,-0.826 0.294,-1.024 0.439,-0.539 0.729,-0.678 0.778,-0.49 0.487,-0.051 1.121,0.59 0.584,-0.879 0.197,-1.804 -0.049,-2.192 -0.245,-1.801 v -0.777 l 0.245,-0.975 0.44,-0.685 0.536,-0.436 0.435,-0.588 0.197,-1.119 0.049,-0.73 0.145,-0.877 0.194,-0.826 0.245,-0.637 0.294,-0.291 0.29,0.098 0.245,0.289 0.242,0.443 0.343,0.34 0.386,-0.147 0.392,-0.289 0.341,-0.197 0.291,0.145 0.246,0.246 0.241,0.193 0.343,-0.049 0.193,-0.193 0.439,-0.637 0.194,-0.242 0.733,-0.338 1.559,-0.148 2.583,-1.121 1.023,-1.317 1.8,-1.652 1.169,-1.998 0.439,-0.44 0.681,-0.293 0.343,0.293 0.68,1.657 0.633,0.632 h 0.684 l 1.41,-0.39 0.681,0.193 0.54,0.441 0.484,0.684 1.172,2.141 0.145,0.633 0.049,1.169 0.144,0.877 0.343,0.975 0.44,0.879 0.434,0.58 1.366,0.684 1.608,-0.145 1.607,-0.684 3.263,-2.63 0.83,-1.266 0.339,-1.559 -0.436,-1.709 -1.072,-0.968 -1.172,-0.78 -0.777,-1.072 -0.146,-0.828 v -1.656 l -0.487,-1.559 v -0.832 l 0.193,-0.775 0.294,-0.682 0.194,-0.781 -0.048,-0.879 -0.29,-1.602 v -3.509 l -0.685,-1.27 -1.849,-2.289 -0.681,-2.877 -1.805,-4.527 -0.145,-0.83 -0.097,-0.875 -0.149,-0.825 -0.289,-0.685 -0.391,-0.682 1.655,-0.68 1.12,0.047 0.926,0.485 0.441,0.636 0.631,1.704 0.488,0.586 1.51,0.828 2.047,1.898 0.778,0.197 2.727,-0.246 2.341,0.246 0.584,0.485 0.729,1.998 0.536,0.781 1.216,-0.295 1.024,-0.633 1.023,-0.144 1.221,1.119 0.923,0.584 3.021,0.392 0.976,0.68 2.871,2.971 0.83,0.539 0.927,0.289 1.849,0.049 1.023,-0.68 0.536,-1.512 0.343,-1.804 0.484,-1.555 0.587,-0.488 h 0.585 l 1.216,0.633 0.777,1.023 -0.29,1.168 -1.07,1.998 0.047,1.266 0.488,0.486 0.681,-0.145 0.68,-0.584 0.295,-0.486 0.439,-1.318 0.242,-0.436 0.342,-0.197 0.242,0.053 0.246,0.144 h 0.39 l 1.559,-0.83 2.337,-2.877 1.511,-0.969 1.36,-0.294 0.393,-0.243 0.342,-0.535 0.047,-0.488 0.049,-0.486 0.193,-0.586 0.831,-1.071 0.875,-0.537 1.023,-0.148 0.975,0.099 2.533,0.875 H 388 l 0.585,-1.023 0.342,-1.457 0.488,-1.463 0.971,-0.926 8.138,-0.73 0.434,-0.242 0.295,-0.342 0.145,-0.682 -0.145,-0.441 -0.242,-0.436 -0.101,-0.685 0.101,-1.508 0.339,-0.877 4.286,-3.602 1.268,-1.515 3.655,-6.039 1.314,-1.559 1.606,-1.168 3.557,-1.559 0.633,-0.632 1.315,-1.854 0.636,-0.875 0.584,0.098 0.535,0.486 0.536,0.291 0.391,-0.098 0.73,-0.529 0.39,-0.15 0.388,0.197 0.195,0.436 0.146,0.535 0.247,0.488 1.119,1.023 1.265,0.733 1.314,0.435 3.02,-0.144 0.681,0.191 0.783,0.735 0.487,1.023 0.386,1.072 0.589,0.926 0.729,0.338 0.487,-0.391 0.44,-0.535 0.584,-0.097 0.68,0.144 h 0.681 l 1.318,-0.433 0.927,-0.735 1.41,-2.191 0.781,-0.926 0.923,-0.436 3.118,-0.197 5.995,-2.191 1.265,0.826 -0.294,0.732 -0.339,1.121 -0.294,1.215 v 0.928 l 0.342,0.633 0.487,0.148 0.537,0.049 0.487,0.242 0.193,0.391 0.097,0.293 0.098,1.508 -0.048,0.24 -0.098,0.246 -0.097,0.977 -0.097,0.293 -0.051,0.339 0.101,0.684 0.192,0.58 0.295,0.443 0.632,0.627 3.215,1.122 0.68,0.734 0.05,0.926 -0.438,2.047 0.196,1.216 0.387,0.633 0.535,0.44 1.071,0.535 -0.825,0.728 -0.293,0.145 0.535,0.295 6.332,0.974 2.439,1.024 0.926,0.633 0.488,0.974 -0.343,1.459 -0.633,0.733 -3.948,1.607 -0.338,0.391 -0.246,1.023 0.145,0.826 0.293,0.778 0.194,0.927 -0.242,1.756 -0.729,0.584 -0.344,0.139 -0.243,-0.529 -0.683,-2.192 -0.535,1.559 -0.29,1.752 -0.148,1.806 -0.05,1.604 0.15,1.756 -0.15,0.732 -1.216,0.58 -0.391,0.735 -0.536,1.998 -1.997,4.088 -0.487,1.416 -0.098,0.828 0.913,0.729 -0.004,0.031 -1.004,-0.76 -0.049,2.24 -0.098,0.435 -0.438,0.344 -1.559,2.19 0.293,0.826 -0.097,0.685 -0.246,0.633 -0.144,0.826 v 1.563 l 0.144,0.482 0.295,0.393 0.146,0.39 -0.294,0.487 -0.585,0.486 -2.678,1.461 -1.704,0.047 -0.879,0.295 -0.924,1.123 -0.294,1.605 0.098,3.604 -0.098,1.951 -1.265,6.573 -1.412,3.993 -2.438,4.778 -0.923,1.265 -3.653,2.531 -0.976,1.317 -0.343,1.801 0.198,2.143 0.488,2.047 0.535,1.414 1.217,2.095 1.312,1.607 1.415,1.169 7.99,3.118 9.693,1.119 6.888,-1.533 0.37,1.437 1.656,3.118 0.681,1.608 2.245,6.333 0.518,2.426 0.65,3.178 0.681,1.603 -0.343,1.318 0.057,0.078 -0.004,0.019 0.826,1.119 2.143,1.221 4.533,-0.1 0.706,0.971 -0.857,-0.044 -2.822,1.119 0.104,0.055 -0.104,0.042 1.216,0.632 3.168,0.245 1.703,1.415 0.927,-0.588 0.196,1.414 z m -189.446,-66.981 -1.265,0.877 -0.975,0.34 -1.608,0.391 -1.559,0.83 -0.584,0.535 -0.294,0.436 -0.585,1.513 -0.777,1.121 -2.095,0.975 -1.805,1.312 -1.752,0.632 -0.878,0.537 -0.875,0.193 -2.046,-0.531 -1.366,0.729 -0.826,-0.585 -1.269,-1.609 -0.826,-0.34 -0.636,0.242 -0.633,0.443 -0.777,0.241 -0.246,-0.145 -0.681,-0.683 -0.39,-0.147 -0.29,0.147 -0.392,0.683 -0.241,0.145 -0.439,0.387 -0.734,1.756 -0.435,0.386 -1.268,-0.386 -3.361,-2.729 -5.455,-0.58 -1.317,-1.17 -0.145,-1.467 -0.048,-2.041 -0.391,-1.463 -1.169,0.193 -0.584,0.44 -0.145,0.439 -0.048,0.877 -0.053,0.34 -0.144,0.438 -0.145,0.39 -0.097,0.145 -0.734,-0.047 -0.241,-0.242 -0.193,-0.539 -0.44,-1.02 -0.488,-0.584 -1.216,-0.685 -0.54,-0.483 -0.387,-0.783 -0.196,-0.83 -0.194,-1.945 0.194,-1.073 v -0.631 l -0.339,-0.295 h -0.246 l -0.193,0.098 -0.146,0.244 -0.048,0.436 -0.101,1.023 -0.241,0.782 -1.704,3.166 -0.976,0.976 -1.119,0.387 -1.463,0.049 -0.193,-0.436 v -0.391 l -0.101,-0.246 -0.584,-0.242 h -0.632 l -2.047,0.926 1.072,-1.414 1.071,-1.072 0.536,-0.68 0.878,-1.607 0.83,-1.073 1.704,-3.363 0.488,-1.604 0.338,-0.83 -0.826,0.291 -0.878,-0.242 -0.487,-0.781 0.342,-1.266 -0.733,-0.584 -0.633,0.584 -0.632,0.975 -0.681,0.488 -0.83,-0.342 0.246,-0.878 0.68,-1.168 0.44,-1.122 -2.047,0.588 -0.487,-0.345 v -0.629 l 0.294,-0.877 0.633,-1.266 1.119,-1.023 1.265,-0.44 h 2.534 l 0.879,-0.777 1.41,-3.461 0.733,-0.777 2.679,-0.493 1.511,-0.626 0.874,-0.975 -1.458,-2.293 -0.246,-0.731 -0.242,-1.509 -0.197,-0.489 -0.488,-0.191 -0.483,0.191 -0.488,0.34 -0.584,0.198 -0.391,-0.295 -0.342,-0.682 -0.681,-1.559 -1.462,-2.289 -0.242,-0.683 -0.439,-1.508 -0.295,-0.535 -0.289,-0.102 -1.024,0.102 -0.048,-0.293 v -0.34 l 0.048,-0.295 0.097,-0.096 0.536,-0.244 0.391,-0.582 0.144,-0.83 -0.144,-0.828 1.023,-1.555 1.217,0.047 5.503,5.016 0.536,0.728 -0.194,1.662 0.049,0.676 0.39,0.637 0.44,0.584 0.29,0.68 1.072,3.023 0.341,1.605 0.194,1.61 0.049,2.726 0.096,0.344 0.294,0.24 0.488,0.784 1.12,1.021 1.168,0.731 0.295,0.046 0.728,0.44 0.294,0.242 0.388,0.049 0.438,-0.291 0.44,-0.194 0.391,0.387 0.434,0.537 0.637,0.487 0.681,0.289 0.535,-0.047 v -0.242 l 0.194,-1.119 v -0.243 l 0.294,0.047 0.096,0.098 0.146,0.144 0.294,0.243 0.338,1.269 0.343,0.488 0.536,-0.439 0.439,-0.779 0.193,-0.149 0.246,0.295 0.584,0.633 0.632,0.293 0.73,0.049 0.733,-0.198 0.584,-0.39 0.536,-1.701 2.095,0.291 1.313,1.265 -1.8,1.119 0.438,0.928 0.826,0.24 1.757,-0.193 0.874,0.145 0.584,0.392 1.12,1.463 0.637,0.434 0.632,0.197 0.584,0.342 2.583,3.554 -0.83,0.926 0.294,0.637 0.874,0.049 1.708,-1.367 0.778,0.634 0.83,1.024 0.874,0.679 -0.097,0.391 -0.096,0.44 -0.048,0.486 v 0.435 l 0.144,0.83 0.343,0.147 0.387,-0.147 0.246,-0.048 0.584,0.488 0.241,0.295 0.294,0.482 0.145,0.44 0.198,1.072 0.048,0.293 0.242,0.387 0.048,0.148 h 0.584 l 0.391,-0.197 0.246,-0.483 0.145,-0.539 0.145,-0.339 0.781,-0.782 0.73,-0.435 1.656,-0.246 -0.243,0.681 -0.341,0.391 -0.44,0.246 -0.487,0.145 0.927,0.679 2.485,-1.75 0.29,1.071 -0.584,1.167 z m 162.944,-6.966 -0.024,0.025 -0.071,0.023 h -0.245 l -0.243,-0.193 -0.246,-0.295 -0.144,-0.482 1.168,-0.686 0.589,-0.096 0.632,0.241 -0.294,0.59 -0.338,0.386 z m -115.304,86.323 1.022,0.29 0.295,0.729 -0.729,1.998 -0.584,1.072 -0.589,-0.149 -0.536,-1.362 0.049,-1.409 z m -52.998,-43.163 0.584,-0.387 0.439,-0.049 1.414,0.338 0.193,0.339 0.097,0.346 0.246,0.145 0.826,-0.196 1.317,-0.778 h 0.777 l 1.169,0.829 0.391,0.145 0.39,-0.145 0.488,-0.346 0.435,-0.145 0.391,0.39 0.342,1.173 -0.149,0.826 -0.97,1.607 -0.782,0.782 h -0.879 l -1.704,-0.491 -2.727,0.878 -1.41,0.144 -0.878,-0.096 -0.633,-0.29 -0.487,-0.54 -0.198,-0.874 0.198,-0.44 z m -36.976,-6.382 1.22,-0.097 2.535,0.633 1.313,0.1 1.12,-0.343 1.072,-0.729 1.852,-2.243 0.388,-0.826 0.096,-1.072 v -1.804 l 0.294,-1.217 0.585,-1.511 0.733,-1.366 0.532,-0.778 -0.632,-0.971 -0.339,-0.346 -0.343,-0.242 1.511,-1.608 2.095,-0.583 2.143,0.241 1.704,0.927 1.024,1.611 1.313,4.335 0.83,1.802 0.633,0.632 0.926,0.685 0.975,0.435 0.632,-0.048 0.291,-0.782 -0.584,-0.629 -0.826,-0.636 -0.44,-0.782 0.44,-0.825 1.023,-0.391 1.12,0.048 0.681,0.443 0.439,0.435 h 0.29 l 0.197,0.193 0.049,0.928 -0.049,0.684 -0.149,0.387 -0.242,0.193 h -0.342 l 0.487,0.927 0.637,0.193 h 0.681 l 0.632,0.347 0.488,-0.444 0.194,0.246 0.096,0.488 0.294,0.242 0.391,-0.049 0.387,-0.193 1.607,-1.121 0.588,0.098 0.242,0.781 -0.048,1.507 -0.145,0.048 h -0.295 l -0.241,0.145 -0.101,0.491 v 0.827 l -0.048,0.39 -0.098,0.338 -0.289,0.444 -0.536,0.629 -0.246,0.443 -0.338,0.435 -0.83,0.685 -0.343,0.728 -0.096,0.681 0.197,1.169 -0.101,0.782 -0.584,0.974 -3.751,1.849 -3.895,-0.245 -0.633,0.491 -0.733,1.024 -0.386,1.216 0.874,2.144 -0.681,0.729 -1.169,0.439 -1.022,0.145 -1.657,0.294 -0.391,-0.198 -0.342,-0.632 -0.048,-0.632 v -0.633 l -0.145,-0.681 -0.536,-1.072 -0.584,-0.635 -0.681,-0.291 -0.879,-0.048 -0.632,-0.685 v -2.627 l -0.439,-0.048 -0.878,0.483 -0.488,-0.193 0.053,-0.536 0.777,-0.536 -11.397,-1.559 -2.877,0.439 -1.51,-0.241 -0.435,-1.27 0.681,-0.777 z m 41.262,-79.302 -0.83,0.678 -0.584,0.1 -0.145,-0.438 -0.049,-0.584 -0.048,-0.635 0.44,-0.683 0.825,-0.532 0.781,0.096 0.145,0.875 -0.145,0.68 z m -28.547,24.94 -0.049,0.439 -0.097,0.293 -0.145,0.049 -0.097,0.144 -0.048,0.338 -0.1,0.151 -0.387,0.144 -0.149,-0.049 -0.049,-0.826 -0.68,-1.564 0.777,-0.873 0.049,-0.68 0.1,-0.049 1.121,1.651 0.048,0.343 -0.246,0.149 z"
             style="fill:url(#linearGradient6226);stroke:none"
             id="path7026"
             inkscape:connector-curvature="0" />
        </g>
      </g>
    </g>
  </g>
  <path
     style="opacity:0.96600001;fill:#ff003f;fill-opacity:1;fill-rule:nonzero;stroke:#29b7ee;stroke-width:0;stroke-linejoin:round;stroke-miterlimit:4;stroke-dasharray:none;stroke-opacity:0.90055249"
     d="m 376.54368,272.47348 c -0.0497,-0.009 -0.21213,-0.0337 -0.36106,-0.0555 -1.27551,-0.18729 -2.50846,-1.09365 -3.11362,-2.28886 -0.32121,-0.63441 -0.46106,-1.23055 -0.46063,-1.96349 3.2e-4,-0.51928 0.0339,-0.76752 0.16492,-1.21972 0.2072,-0.71499 0.55724,-1.28766 1.133,-1.85361 0.57871,-0.56883 1.16809,-0.90497 1.94006,-1.10645 0.49158,-0.1283 1.29613,-0.15823 1.80489,-0.0671 1.46561,0.26239 2.6789,1.23403 3.24322,2.5973 0.62533,1.51061 0.34876,3.22988 -0.71853,4.46679 -0.61898,0.71735 -1.46227,1.21461 -2.38659,1.4073 -0.31461,0.0656 -1.06169,0.11564 -1.24566,0.0834 z"
     id="path6828"
     inkscape:connector-curvature="0" />
  <path
     inkscape:connector-curvature="0"
     id="path6830"
     d="m 115.07353,278.75333 c -0.0497,-0.009 -0.21213,-0.0337 -0.36106,-0.0555 -1.27551,-0.18729 -2.50846,-1.09365 -3.11362,-2.28886 -0.32121,-0.63441 -0.46106,-1.23055 -0.46063,-1.96349 3.2e-4,-0.51928 0.0339,-0.76752 0.16492,-1.21972 0.2072,-0.71499 0.55724,-1.28766 1.133,-1.85361 0.57871,-0.56883 1.16809,-0.90497 1.94006,-1.10645 0.49158,-0.1283 1.29613,-0.15823 1.80489,-0.0671 1.46561,0.26239 2.6789,1.23403 3.24322,2.5973 0.62533,1.51061 0.34876,3.22988 -0.71853,4.46679 -0.61898,0.71735 -1.46227,1.21461 -2.38659,1.4073 -0.31461,0.0656 -1.06169,0.11564 -1.24566,0.0834 z"
     style="opacity:0.96600001;fill:#ff003f;fill-opacity:1;fill-rule:nonzero;stroke:#29b7ee;stroke-width:0;stroke-linejoin:round;stroke-miterlimit:4;stroke-dasharray:none;stroke-opacity:0.90055249" />
  <path
     style="opacity:0.96600001;fill:#ff003f;fill-opacity:1;fill-rule:nonzero;stroke:#29b7ee;stroke-width:0;stroke-linejoin:round;stroke-miterlimit:4;stroke-dasharray:none;stroke-opacity:0.90055249"
     d="m 590.79672,252.91263 c -0.0497,-0.009 -0.21213,-0.0337 -0.36106,-0.0555 -1.27551,-0.18729 -2.50846,-1.09365 -3.11362,-2.28886 -0.32121,-0.63441 -0.46106,-1.23055 -0.46063,-1.96349 3.2e-4,-0.51928 0.0339,-0.76752 0.16492,-1.21972 0.2072,-0.71499 0.55724,-1.28766 1.133,-1.85361 0.57871,-0.56883 1.16809,-0.90497 1.94006,-1.10645 0.49158,-0.1283 1.29613,-0.15823 1.80489,-0.0671 1.46561,0.26239 2.6789,1.23403 3.24322,2.5973 0.62533,1.51061 0.34876,3.22988 -0.71853,4.46679 -0.61898,0.71735 -1.46227,1.21461 -2.38659,1.4073 -0.31461,0.0656 -1.06169,0.11564 -1.24566,0.0834 z"
     id="path6832"
     inkscape:connector-curvature="0" />
  <path
     inkscape:connector-curvature="0"
     id="path6834"
     d="m 569.50637,112.05184 c -0.0497,-0.009 -0.21213,-0.0337 -0.36106,-0.0555 -1.27551,-0.18729 -2.50846,-1.09365 -3.11362,-2.28886 -0.32121,-0.63441 -0.46106,-1.23055 -0.46063,-1.96349 3.2e-4,-0.51928 0.0339,-0.76752 0.16492,-1.21972 0.2072,-0.71499 0.55724,-1.28766 1.133,-1.85361 0.57871,-0.56883 1.16809,-0.90497 1.94006,-1.10645 0.49158,-0.1283 1.29613,-0.15823 1.80489,-0.0671 1.46561,0.26239 2.6789,1.23403 3.24322,2.5973 0.62533,1.51061 0.34876,3.22988 -0.71853,4.46679 -0.61898,0.71735 -1.46227,1.21461 -2.38659,1.4073 -0.31461,0.0656 -1.06169,0.11564 -1.24566,0.0834 z"
     style="opacity:0.96600001;fill:#ff003f;fill-opacity:1;fill-rule:nonzero;stroke:#29b7ee;stroke-width:0;stroke-linejoin:round;stroke-miterlimit:4;stroke-dasharray:none;stroke-opacity:0.90055249" />
  <path
     style="opacity:0.96600001;fill:#ff003f;fill-opacity:1;fill-rule:nonzero;stroke:#29b7ee;stroke-width:0;stroke-linejoin:round;stroke-miterlimit:4;stroke-dasharray:none;stroke-opacity:0.90055249"
     d="m 70.005071,482.54526 c -0.0497,-0.009 -0.21213,-0.0337 -0.36106,-0.0555 -1.27551,-0.18729 -2.50846,-1.09365 -3.11362,-2.28886 -0.32121,-0.63441 -0.46106,-1.23055 -0.46063,-1.96349 3.2e-4,-0.51928 0.0339,-0.76752 0.16492,-1.21972 0.2072,-0.71499 0.55724,-1.28766 1.133,-1.85361 0.57871,-0.56883 1.16809,-0.90497 1.94006,-1.10645 0.49158,-0.1283 1.29613,-0.15823 1.80489,-0.0671 1.46561,0.26239 2.6789,1.23403 3.24322,2.5973 0.62533,1.51061 0.34876,3.22988 -0.71853,4.46679 -0.61898,0.71735 -1.46227,1.21461 -2.38659,1.4073 -0.31461,0.0656 -1.06169,0.11564 -1.24566,0.0834 z"
     id="path6836"
     inkscape:connector-curvature="0" />
  <path
     inkscape:connector-curvature="0"
     id="path6838"
     d="m 117.92801,599.59661 c -0.0497,-0.009 -0.21213,-0.0337 -0.36106,-0.0555 -1.27551,-0.18729 -2.50846,-1.09365 -3.11362,-2.28886 -0.32121,-0.63441 -0.46106,-1.23055 -0.46063,-1.96349 3.2e-4,-0.51928 0.0339,-0.76752 0.16492,-1.21972 0.2072,-0.71499 0.55724,-1.28766 1.133,-1.85361 0.57871,-0.56883 1.16809,-0.90497 1.94006,-1.10645 0.49158,-0.1283 1.29613,-0.15823 1.80489,-0.0671 1.46561,0.26239 2.6789,1.23403 3.24322,2.5973 0.62533,1.51061 0.34876,3.22988 -0.71853,4.46679 -0.61898,0.71735 -1.46227,1.21461 -2.38659,1.4073 -0.31461,0.0656 -1.06169,0.11564 -1.24566,0.0834 z"
     style="opacity:0.96600001;fill:#ff003f;fill-opacity:1;fill-rule:nonzero;stroke:#29b7ee;stroke-width:0;stroke-linejoin:round;stroke-miterlimit:4;stroke-dasharray:none;stroke-opacity:0.90055249" />
  <path
     style="opacity:0.96600001;fill:#ff003f;fill-opacity:1;fill-rule:nonzero;stroke:#29b7ee;stroke-width:0;stroke-linejoin:round;stroke-miterlimit:4;stroke-dasharray:none;stroke-opacity:0.90055249"
     d="m 462.67964,552.91759 c -0.0497,-0.009 -0.21213,-0.0337 -0.36106,-0.0555 -1.27551,-0.18729 -2.50846,-1.09365 -3.11362,-2.28886 -0.32121,-0.63441 -0.46106,-1.23055 -0.46063,-1.96349 3.2e-4,-0.51928 0.0339,-0.76752 0.16492,-1.21972 0.2072,-0.71499 0.55724,-1.28766 1.133,-1.85361 0.57871,-0.56883 1.16809,-0.90497 1.94006,-1.10645 0.49158,-0.1283 1.29613,-0.15823 1.80489,-0.0671 1.46561,0.26239 2.6789,1.23403 3.24322,2.5973 0.62533,1.51061 0.34876,3.22988 -0.71853,4.46679 -0.61898,0.71735 -1.46227,1.21461 -2.38659,1.4073 -0.31461,0.0656 -1.06169,0.11564 -1.24566,0.0834 z"
     id="path6840"
     inkscape:connector-curvature="0" />
  <path
     inkscape:connector-curvature="0"
     id="path6842"
     d="m 548.88486,464.42878 c -0.0497,-0.009 -0.21213,-0.0337 -0.36106,-0.0555 -1.27551,-0.18729 -2.50846,-1.09365 -3.11362,-2.28886 -0.32121,-0.63441 -0.46106,-1.23055 -0.46063,-1.96349 3.2e-4,-0.51928 0.0339,-0.76752 0.16492,-1.21972 0.2072,-0.71499 0.55724,-1.28766 1.133,-1.85361 0.57871,-0.56883 1.16809,-0.90497 1.94006,-1.10645 0.49158,-0.1283 1.29613,-0.15823 1.80489,-0.0671 1.46561,0.26239 2.6789,1.23403 3.24322,2.5973 0.62533,1.51061 0.34876,3.22988 -0.71853,4.46679 -0.61898,0.71735 -1.46227,1.21461 -2.38659,1.4073 -0.31461,0.0656 -1.06169,0.11564 -1.24566,0.0834 z"
     style="opacity:0.96600001;fill:#ff003f;fill-opacity:1;fill-rule:nonzero;stroke:#29b7ee;stroke-width:0;stroke-linejoin:round;stroke-miterlimit:4;stroke-dasharray:none;stroke-opacity:0.90055249" />
  <path
     style="opacity:0.96600001;fill:#ff003f;fill-opacity:1;fill-rule:nonzero;stroke:#29b7ee;stroke-width:0;stroke-linejoin:round;stroke-miterlimit:4;stroke-dasharray:none;stroke-opacity:0.90055249"
     d="m 325.17463,667.57937 c -0.0497,-0.009 -0.21213,-0.0337 -0.36106,-0.0555 -1.27551,-0.18729 -2.50846,-1.09365 -3.11362,-2.28886 -0.32121,-0.63441 -0.46106,-1.23055 -0.46063,-1.96349 3.2e-4,-0.51928 0.0339,-0.76752 0.16492,-1.21972 0.2072,-0.71499 0.55724,-1.28766 1.133,-1.85361 0.57871,-0.56883 1.16809,-0.90497 1.94006,-1.10645 0.49158,-0.1283 1.29613,-0.15823 1.80489,-0.0671 1.46561,0.26239 2.6789,1.23403 3.24322,2.5973 0.62533,1.51061 0.34876,3.22988 -0.71853,4.46679 -0.61898,0.71735 -1.46227,1.21461 -2.38659,1.4073 -0.31461,0.0656 -1.06169,0.11564 -1.24566,0.0834 z"
     id="path6844"
     inkscape:connector-curvature="0" />
  <path
     style="opacity:0.96600001;fill:#ff003f;fill-opacity:1;fill-rule:nonzero;stroke:#29b7ee;stroke-width:0;stroke-linejoin:round;stroke-miterlimit:4;stroke-dasharray:none;stroke-opacity:0.90055249"
     d="m 745.07533,472.50246 c -0.0497,-0.009 -0.21213,-0.0337 -0.36106,-0.0555 -1.27551,-0.18729 -2.50846,-1.09365 -3.11362,-2.28886 -0.32121,-0.63441 -0.46106,-1.23055 -0.46063,-1.96349 3.2e-4,-0.51928 0.0339,-0.76752 0.16492,-1.21972 0.2072,-0.71499 0.55724,-1.28766 1.133,-1.85361 0.57871,-0.56883 1.16809,-0.90497 1.94006,-1.10645 0.49158,-0.1283 1.29613,-0.15823 1.80489,-0.0671 1.46561,0.26239 2.6789,1.23403 3.24322,2.5973 0.62533,1.51061 0.34876,3.22988 -0.71853,4.46679 -0.61898,0.71735 -1.46227,1.21461 -2.38659,1.4073 -0.31461,0.0656 -1.06169,0.11564 -1.24566,0.0834 z"
     id="path6846"
     inkscape:connector-curvature="0" />
  <path
     inkscape:connector-curvature="0"
     id="path6848"
     d="m 908.1637,508.02666 c -0.0497,-0.009 -0.21213,-0.0337 -0.36106,-0.0555 -1.27551,-0.18729 -2.50846,-1.09365 -3.11362,-2.28886 -0.32121,-0.63441 -0.46106,-1.23055 -0.46063,-1.96349 3.2e-4,-0.51928 0.0339,-0.76752 0.16492,-1.21972 0.2072,-0.71499 0.55724,-1.28766 1.133,-1.85361 0.57871,-0.56883 1.16809,-0.90497 1.94006,-1.10645 0.49158,-0.1283 1.29613,-0.15823 1.80489,-0.0671 1.46561,0.26239 2.6789,1.23403 3.24322,2.5973 0.62533,1.51061 0.34876,3.22988 -0.71853,4.46679 -0.61898,0.71735 -1.46227,1.21461 -2.38659,1.4073 -0.31461,0.0656 -1.06169,0.11564 -1.24566,0.0834 z"
     style="opacity:0.96600001;fill:#ff003f;fill-opacity:1;fill-rule:nonzero;stroke:#29b7ee;stroke-width:0;stroke-linejoin:round;stroke-miterlimit:4;stroke-dasharray:none;stroke-opacity:0.90055249" />
  <path
     style="opacity:0.96600001;fill:#ff003f;fill-opacity:1;fill-rule:nonzero;stroke:#29b7ee;stroke-width:0;stroke-linejoin:round;stroke-miterlimit:4;stroke-dasharray:none;stroke-opacity:0.90055249"
     d="m 1006.6626,652.54557 c -0.05,-0.009 -0.2121,-0.0337 -0.361,-0.0555 -1.2756,-0.18729 -2.5085,-1.09365 -3.1137,-2.28886 -0.3212,-0.63441 -0.461,-1.23055 -0.4606,-1.96349 3e-4,-0.51928 0.034,-0.76752 0.1649,-1.21972 0.2072,-0.71499 0.5573,-1.28766 1.133,-1.85361 0.5787,-0.56883 1.1681,-0.90497 1.9401,-1.10645 0.4916,-0.1283 1.2961,-0.15823 1.8049,-0.0671 1.4656,0.26239 2.6789,1.23403 3.2432,2.5973 0.6253,1.51061 0.3488,3.22988 -0.7185,4.46679 -0.619,0.71735 -1.4623,1.21461 -2.3866,1.4073 -0.3146,0.0656 -1.0617,0.11564 -1.2457,0.0834 z"
     id="path6850"
     inkscape:connector-curvature="0" />
  <path
     inkscape:connector-curvature="0"
     id="path6852"
     d="m 892.82369,343.32355 c -0.05,-0.009 -0.2121,-0.0337 -0.361,-0.0555 -1.2756,-0.18729 -2.5085,-1.09365 -3.1137,-2.28886 -0.3212,-0.63441 -0.461,-1.23055 -0.4606,-1.96349 3e-4,-0.51928 0.034,-0.76752 0.1649,-1.21972 0.2072,-0.71499 0.5573,-1.28766 1.133,-1.85361 0.5787,-0.56883 1.1681,-0.90497 1.9401,-1.10645 0.4916,-0.1283 1.2961,-0.15823 1.8049,-0.0671 1.4656,0.26239 2.6789,1.23403 3.2432,2.5973 0.6253,1.51061 0.3488,3.22988 -0.7185,4.46679 -0.619,0.71735 -1.4623,1.21461 -2.3866,1.4073 -0.3146,0.0656 -1.0617,0.11564 -1.2457,0.0834 z"
     style="opacity:0.96600001;fill:#ff003f;fill-opacity:1;fill-rule:nonzero;stroke:#29b7ee;stroke-width:0;stroke-linejoin:round;stroke-miterlimit:4;stroke-dasharray:none;stroke-opacity:0.90055249" />
  <path
     style="opacity:0.96600001;fill:#ff003f;fill-opacity:1;fill-rule:nonzero;stroke:#29b7ee;stroke-width:0;stroke-linejoin:round;stroke-miterlimit:4;stroke-dasharray:none;stroke-opacity:0.90055249"
     d="m 720.0469,317.48777 c -0.05,-0.009 -0.2121,-0.0337 -0.361,-0.0555 -1.2756,-0.18729 -2.5085,-1.09365 -3.1137,-2.28886 -0.3212,-0.63441 -0.461,-1.23055 -0.4606,-1.96349 3e-4,-0.51928 0.034,-0.76752 0.1649,-1.21972 0.2072,-0.71499 0.5573,-1.28766 1.133,-1.85361 0.5787,-0.56883 1.1681,-0.90497 1.9401,-1.10645 0.4916,-0.1283 1.2961,-0.15823 1.8049,-0.0671 1.4656,0.26239 2.6789,1.23403 3.2432,2.5973 0.6253,1.51061 0.3488,3.22988 -0.7185,4.46679 -0.619,0.71735 -1.4623,1.21461 -2.3866,1.4073 -0.3146,0.0656 -1.0617,0.11564 -1.2457,0.0834 z"
     id="path6854"
     inkscape:connector-curvature="0" />
  <path
     inkscape:connector-curvature="0"
     id="path6856"
     d="m 1000.7357,300.97353 c -0.05,-0.009 -0.2121,-0.0337 -0.361,-0.0555 -1.27556,-0.18729 -2.50846,-1.09365 -3.1137,-2.28886 -0.3212,-0.63441 -0.461,-1.23055 -0.4606,-1.96349 3e-4,-0.51928 0.034,-0.76752 0.1649,-1.21972 0.2072,-0.71499 0.5573,-1.28766 1.13304,-1.85361 0.5787,-0.56883 1.1681,-0.90497 1.94006,-1.10645 0.4916,-0.1283 1.2961,-0.15823 1.8049,-0.0671 1.4656,0.26239 2.6789,1.23403 3.2432,2.5973 0.6253,1.51061 0.3488,3.22988 -0.7185,4.46679 -0.619,0.71735 -1.4623,1.21461 -2.3866,1.4073 -0.3146,0.0656 -1.0617,0.11564 -1.2457,0.0834 z"
     style="opacity:0.96600001;fill:#ff003f;fill-opacity:1;fill-rule:nonzero;stroke:#29b7ee;stroke-width:0;stroke-linejoin:round;stroke-miterlimit:4;stroke-dasharray:none;stroke-opacity:0.90055249" />
  <path
     style="opacity:0.96600001;fill:#ff003f;fill-opacity:1;fill-rule:nonzero;stroke:#29b7ee;stroke-width:0;stroke-linejoin:round;stroke-miterlimit:4;stroke-dasharray:none;stroke-opacity:0.90055249"
     d="m 855.79544,205.07738 c -0.05,-0.009 -0.2121,-0.0337 -0.361,-0.0555 -1.2756,-0.18729 -2.5085,-1.09365 -3.11374,-2.28886 -0.3212,-0.63441 -0.461,-1.23055 -0.4606,-1.96349 3e-4,-0.51928 0.034,-0.76752 0.1649,-1.21972 0.2072,-0.71499 0.5573,-1.28766 1.13304,-1.85361 0.5787,-0.56883 1.1681,-0.90497 1.9401,-1.10645 0.4916,-0.1283 1.2961,-0.15823 1.8049,-0.0671 1.4656,0.26239 2.6789,1.23403 3.2432,2.5973 0.6253,1.51061 0.3488,3.22988 -0.7185,4.46679 -0.619,0.71735 -1.4623,1.21461 -2.3866,1.4073 -0.3146,0.0656 -1.0617,0.11564 -1.2457,0.0834 z"
     id="path6858"
     inkscape:connector-curvature="0" />
  <path
     inkscape:connector-curvature="0"
     id="path6860"
     d="m 919.08081,74.096237 c -0.05,-0.009 -0.2121,-0.0337 -0.361,-0.0555 -1.2756,-0.18729 -2.5085,-1.09365 -3.11374,-2.28886 -0.3212,-0.63441 -0.461,-1.23055 -0.4606,-1.96349 3e-4,-0.51928 0.034,-0.76752 0.1649,-1.21972 0.2072,-0.71499 0.5573,-1.28766 1.13304,-1.85361 0.5787,-0.56883 1.1681,-0.90497 1.9401,-1.10645 0.4916,-0.1283 1.2961,-0.15823 1.8049,-0.0671 1.4656,0.26239 2.6789,1.23403 3.2432,2.5973 0.6253,1.51061 0.3488,3.22988 -0.7185,4.46679 -0.619,0.71735 -1.4623,1.21461 -2.3866,1.4073 -0.3146,0.0656 -1.0617,0.11564 -1.2457,0.0834 z"
     style="opacity:0.96600001;fill:#ff003f;fill-opacity:1;fill-rule:nonzero;stroke:#29b7ee;stroke-width:0;stroke-linejoin:round;stroke-miterlimit:4;stroke-dasharray:none;stroke-opacity:0.90055249" />
  <path
     style="opacity:0.96600001;fill:#ff003f;fill-opacity:1;fill-rule:nonzero;stroke:#29b7ee;stroke-width:0;stroke-linejoin:round;stroke-miterlimit:4;stroke-dasharray:none;stroke-opacity:0.90055249"
     d="m 1076.5176,127.38254 c -0.05,-0.009 -0.2121,-0.0337 -0.361,-0.0555 -1.2756,-0.18729 -2.5085,-1.09365 -3.1137,-2.28886 -0.3212,-0.63441 -0.461,-1.23055 -0.4606,-1.96349 3e-4,-0.51928 0.034,-0.76752 0.1649,-1.21972 0.2072,-0.71499 0.5573,-1.28766 1.133,-1.85361 0.5787,-0.56883 1.1681,-0.90497 1.9401,-1.10645 0.4916,-0.1283 1.2961,-0.15823 1.8049,-0.0671 1.4656,0.26239 2.6789,1.23403 3.2432,2.5973 0.6253,1.51061 0.3488,3.22988 -0.7185,4.46679 -0.619,0.71735 -1.4623,1.21461 -2.3866,1.4073 -0.3146,0.0656 -1.0617,0.11564 -1.2457,0.0834 z"
     id="path6862"
     inkscape:connector-curvature="0" />
  <path
     inkscape:connector-curvature="0"
     id="path6864"
     d="m 1221.7564,117.06674 c -0.05,-0.009 -0.2121,-0.0337 -0.361,-0.0555 -1.2756,-0.18729 -2.5085,-1.09365 -3.1137,-2.28886 -0.3212,-0.63441 -0.461,-1.23055 -0.4606,-1.96349 3e-4,-0.51928 0.034,-0.76752 0.1649,-1.21972 0.2072,-0.71499 0.5573,-1.28766 1.133,-1.85361 0.5787,-0.56883 1.1681,-0.90497 1.9401,-1.10645 0.4916,-0.1283 1.2961,-0.15823 1.8049,-0.0671 1.4656,0.26239 2.6789,1.23403 3.2432,2.5973 0.6253,1.51061 0.3488,3.22988 -0.7185,4.46679 -0.619,0.71735 -1.4623,1.21461 -2.3866,1.4073 -0.3146,0.0656 -1.0617,0.11564 -1.2457,0.0834 z"
     style="opacity:0.96600001;fill:#ff003f;fill-opacity:1;fill-rule:nonzero;stroke:#29b7ee;stroke-width:0;stroke-linejoin:round;stroke-miterlimit:4;stroke-dasharray:none;stroke-opacity:0.90055249" />
  <text
     xml:space="preserve"
     style="font-style:normal;font-variant:normal;font-weight:bold;font-stretch:normal;font-size:17.33333397px;line-height:2;font-family:monospace;-inkscape-font-specification:'monospace Bold';letter-spacing:0px;word-spacing:0px;fill:#000000;fill-opacity:1;stroke:none"
     x="579.07001"
     y="112.15918"
     id="text6868"><tspan
       sodipodi:role="line"
       id="tspan6866"
       x="579.07001"
       y="112.15918">Harku</tspan></text>
  <text
     xml:space="preserve"
     style="font-style:normal;font-weight:normal;font-size:40px;line-height:1.25;font-family:sans-serif;letter-spacing:0px;word-spacing:0px;fill:#000000;fill-opacity:1;stroke:none"
     x="1019.6194"
     y="643.97015"
     id="text6876"><tspan
       sodipodi:role="line"
       id="tspan6874"
       x="1019.6194"
       y="679.36078" /></text>
  <text
     id="text6880"
     y="652.22632"
     x="1017.224"
     style="font-style:normal;font-variant:normal;font-weight:bold;font-stretch:normal;font-size:17.33333397px;line-height:2;font-family:monospace;-inkscape-font-specification:'monospace Bold';letter-spacing:0px;word-spacing:0px;fill:#000000;fill-opacity:1;stroke:none"
     xml:space="preserve"><tspan
       y="652.22632"
       x="1017.224"
       id="tspan6878"
       sodipodi:role="line">Vru</tspan></text>
  <text
     xml:space="preserve"
     style="font-style:normal;font-variant:normal;font-weight:bold;font-stretch:normal;font-size:17.33333397px;line-height:2;font-family:monospace;-inkscape-font-specification:'monospace Bold';letter-spacing:0px;word-spacing:0px;fill:#000000;fill-opacity:1;stroke:none"
     x="1017.224"
     y="652.22632"
     id="text6894"><tspan
       sodipodi:role="line"
       id="tspan6892"
       x="1017.224"
       y="652.22632">Vru</tspan></text>
  <text
     id="text6898"
     y="203.98573"
     x="864.39478"
     style="font-style:normal;font-variant:normal;font-weight:bold;font-stretch:normal;font-size:17.33333397px;line-height:2;font-family:monospace;-inkscape-font-specification:'monospace Bold';letter-spacing:0px;word-spacing:0px;fill:#000000;fill-opacity:1;stroke:none"
     xml:space="preserve"><tspan
       y="203.98573"
       x="864.39478"
       id="tspan6896"
       sodipodi:role="line">Vike-Maarja</tspan></text>
  <text
     xml:space="preserve"
     style="font-style:normal;font-variant:normal;font-weight:bold;font-stretch:normal;font-size:17.33333397px;line-height:2;font-family:monospace;-inkscape-font-specification:'monospace Bold';letter-spacing:0px;word-spacing:0px;fill:#000000;fill-opacity:1;stroke:none"
     x="1007.1284"
     y="300.39102"
     id="text6902"><tspan
       sodipodi:role="line"
       id="tspan6900"
       x="1007.1284"
       y="300.39102">Mustvee</tspan></text>
  <text
     xml:space="preserve"
     style="font-style:normal;font-variant:normal;font-weight:bold;font-stretch:normal;font-size:17.33333397px;line-height:2;font-family:monospace;-inkscape-font-specification:'monospace Bold';letter-spacing:0px;word-spacing:0px;fill:#000000;fill-opacity:1;stroke:none"
     x="902.15021"
     y="342.76349"
     id="text6910"
     inkscape:transform-center-x="-21.395257"
     inkscape:transform-center-y="-18.973152"><tspan
       sodipodi:role="line"
       id="tspan6908"
       x="902.15021"
       y="342.76349">Jgeva</tspan></text>
  <text
     xml:space="preserve"
     style="font-style:normal;font-variant:normal;font-weight:bold;font-stretch:normal;font-size:17.33333397px;line-height:2;font-family:monospace;-inkscape-font-specification:'monospace Bold';letter-spacing:0px;word-spacing:0px;fill:#000000;fill-opacity:1;stroke:none"
     x="1088.1571"
     y="127.86913"
     id="text6924"><tspan
       sodipodi:role="line"
       id="tspan6922"
       x="1088.1571"
       y="127.86913">Jhvi</tspan></text>
  <text
     id="text6928"
     y="116.16577"
     x="1228.8828"
     style="font-style:normal;font-variant:normal;font-weight:bold;font-stretch:normal;font-size:17.33333397px;line-height:2;font-family:monospace;-inkscape-font-specification:'monospace Bold';letter-spacing:0px;word-spacing:0px;fill:#000000;fill-opacity:1;stroke:none"
     xml:space="preserve"><tspan
       y="116.16577"
       x="1228.8828"
       id="tspan6926"
       sodipodi:role="line">Narva</tspan></text>
  <text
     id="text6932"
     y="73.37178"
     x="929.10559"
     style="font-style:normal;font-variant:normal;font-weight:bold;font-stretch:normal;font-size:17.33333397px;line-height:2;font-family:monospace;-inkscape-font-specification:'monospace Bold';letter-spacing:0px;word-spacing:0px;fill:#000000;fill-opacity:1;stroke:none"
     xml:space="preserve"><tspan
       y="73.37178"
       x="929.10559"
       id="tspan6930"
       sodipodi:role="line">Kunda</tspan></text>
  <text
     id="text6936"
     y="317.39612"
     x="729.37854"
     style="font-style:normal;font-variant:normal;font-weight:bold;font-stretch:normal;font-size:17.33333397px;line-height:2;font-family:monospace;-inkscape-font-specification:'monospace Bold';letter-spacing:0px;word-spacing:0px;fill:#000000;fill-opacity:1;stroke:none"
     xml:space="preserve"><tspan
       y="317.39612"
       x="729.37854"
       id="tspan6934"
       sodipodi:role="line">Tri</tspan></text>
  <text
     xml:space="preserve"
     style="font-style:normal;font-variant:normal;font-weight:bold;font-stretch:normal;font-size:17.33333397px;line-height:2;font-family:monospace;-inkscape-font-specification:'monospace Bold';letter-spacing:0px;word-spacing:0px;fill:#000000;fill-opacity:1;stroke:none"
     x="600.02594"
     y="253.52159"
     id="text6940"><tspan
       sodipodi:role="line"
       id="tspan6938"
       x="600.02594"
       y="253.52159">Rapla</tspan></text>
  <text
     inkscape:transform-center-y="-18.973152"
     inkscape:transform-center-x="-21.395257"
     id="text6944"
     y="473.21313"
     x="753.43195"
     style="font-style:normal;font-variant:normal;font-weight:bold;font-stretch:normal;font-size:17.33333397px;line-height:2;font-family:monospace;-inkscape-font-specification:'monospace Bold';letter-spacing:0px;word-spacing:0px;fill:#000000;fill-opacity:1;stroke:none"
     xml:space="preserve"><tspan
       y="473.21313"
       x="753.43195"
       id="tspan6942"
       sodipodi:role="line">Viljandi</tspan></text>
  <text
     xml:space="preserve"
     style="font-style:normal;font-variant:normal;font-weight:bold;font-stretch:normal;font-size:17.33333397px;line-height:2;font-family:monospace;-inkscape-font-specification:'monospace Bold';letter-spacing:0px;word-spacing:0px;fill:#000000;fill-opacity:1;stroke:none"
     x="916.70807"
     y="507.75229"
     id="text6948"
     inkscape:transform-center-x="-21.395257"
     inkscape:transform-center-y="-18.973152"><tspan
       sodipodi:role="line"
       id="tspan6946"
       x="916.70807"
       y="507.75229">Travere</tspan></text>
  <text
     xml:space="preserve"
     style="font-style:normal;font-variant:normal;font-weight:bold;font-stretch:normal;font-size:17.33333397px;line-height:2;font-family:monospace;-inkscape-font-specification:'monospace Bold';letter-spacing:0px;word-spacing:0px;fill:#000000;fill-opacity:1;stroke:none"
     x="555.82629"
     y="464.9726"
     id="text6952"><tspan
       sodipodi:role="line"
       id="tspan6950"
       x="555.82629"
       y="464.9726">Prnu</tspan></text>
  <text
     id="text6960"
     y="553.46149"
     x="469.621"
     style="font-style:normal;font-variant:normal;font-weight:bold;font-stretch:normal;font-size:17.33333397px;line-height:2;font-family:monospace;-inkscape-font-specification:'monospace Bold';letter-spacing:0px;word-spacing:0px;fill:#000000;fill-opacity:1;stroke:none"
     xml:space="preserve"><tspan
       y="553.46149"
       x="469.621"
       id="tspan6958"
       sodipodi:role="line">Kihnu</tspan></text>
  <text
     xml:space="preserve"
     style="font-style:normal;font-variant:normal;font-weight:bold;font-stretch:normal;font-size:17.33333397px;line-height:2;font-family:monospace;-inkscape-font-specification:'monospace Bold';letter-spacing:0px;word-spacing:0px;fill:#000000;fill-opacity:1;stroke:none"
     x="332.32065"
     y="668.49689"
     id="text6968"><tspan
       sodipodi:role="line"
       id="tspan6966"
       x="332.32065"
       y="668.49689">Ruhnu</tspan></text>
  <text
     xml:space="preserve"
     style="font-style:normal;font-variant:normal;font-weight:bold;font-stretch:normal;font-size:17.33333397px;line-height:2;font-family:monospace;-inkscape-font-specification:'monospace Bold';letter-spacing:0px;word-spacing:0px;fill:#000000;fill-opacity:1;stroke:none"
     x="125.51374"
     y="600.5603"
     id="text6972"><tspan
       sodipodi:role="line"
       id="tspan6970"
       x="125.51374"
       y="600.5603">Srve</tspan></text>
  <text
     id="text6976"
     y="483.20651"
     x="77.403084"
     style="font-style:normal;font-variant:normal;font-weight:bold;font-stretch:normal;font-size:17.33333397px;line-height:2;font-family:monospace;-inkscape-font-specification:'monospace Bold';letter-spacing:0px;word-spacing:0px;fill:#000000;fill-opacity:1;stroke:none"
     xml:space="preserve"
     inkscape:transform-center-x="-16.147364"
     inkscape:transform-center-y="31.487359"><tspan
       y="483.20651"
       x="77.403084"
       id="tspan6974"
       sodipodi:role="line">Vilsandi</tspan></text>
  <text
     inkscape:transform-center-y="31.487359"
     inkscape:transform-center-x="-16.147364"
     xml:space="preserve"
     style="font-style:normal;font-variant:normal;font-weight:bold;font-stretch:normal;font-size:17.33333397px;line-height:2;font-family:monospace;-inkscape-font-specification:'monospace Bold';letter-spacing:0px;word-spacing:0px;fill:#000000;fill-opacity:1;stroke:none"
     x="121.64748"
     y="279.39679"
     id="text6988"><tspan
       sodipodi:role="line"
       id="tspan6986"
       x="121.64748"
       y="279.39679">Ristna</tspan></text>
  <text
     id="text6996"
     y="272.0444"
     x="384.25943"
     style="font-style:normal;font-variant:normal;font-weight:bold;font-stretch:normal;font-size:17.33333397px;line-height:2;font-family:monospace;-inkscape-font-specification:'monospace Bold';letter-spacing:0px;word-spacing:0px;fill:#000000;fill-opacity:1;stroke:none"
     xml:space="preserve"
     inkscape:transform-center-x="-16.147364"
     inkscape:transform-center-y="31.487359"><tspan
       y="272.0444"
       x="384.25943"
       id="tspan6994"
       sodipodi:role="line">Haapsalu</tspan></text>
  <path
     style="fill:none;stroke:#ff003f;stroke-width:1.65106869;stroke-linecap:butt;stroke-linejoin:miter;stroke-miterlimit:4;stroke-dasharray:none;stroke-opacity:1"
     d="m 376.54368,272.47348 -0.31929,64.94873"
     id="path7010"
     inkscape:connector-curvature="0" />
  <path
     style="fill:none;stroke:#ff003f;stroke-width:1.65106869;stroke-linecap:butt;stroke-linejoin:miter;stroke-miterlimit:4;stroke-dasharray:none;stroke-opacity:1"
     d="m 720.0469,317.48777 -0.31929,64.94873"
     id="path7012"
     inkscape:connector-curvature="0" />
  <path
     inkscape:connector-curvature="0"
     id="path7016"
     d="m 115.07353,278.75333 -0.31929,64.94873"
     style="fill:none;stroke:#ff003f;stroke-width:1.65106869;stroke-linecap:butt;stroke-linejoin:miter;stroke-miterlimit:4;stroke-dasharray:none;stroke-opacity:1" />
  <path
     style="fill:none;stroke:#ff003f;stroke-width:1.65106869;stroke-linecap:butt;stroke-linejoin:miter;stroke-miterlimit:4;stroke-dasharray:none;stroke-opacity:1"
     d="m 70.005071,482.54526 -0.31929,64.94873"
     id="path7018"
     inkscape:connector-curvature="0" />
  <path
     inkscape:connector-curvature="0"
     id="path7020"
     d="m 117.9603,595.01168 -0.31929,64.94873"
     style="fill:none;stroke:#ff003f;stroke-width:1.65106869;stroke-linecap:butt;stroke-linejoin:miter;stroke-miterlimit:4;stroke-dasharray:none;stroke-opacity:1" />
  <path
     style="fill:none;stroke:#ff003f;stroke-width:1.65106869;stroke-linecap:butt;stroke-linejoin:miter;stroke-miterlimit:4;stroke-dasharray:none;stroke-opacity:1"
     d="m 325.17463,667.57937 -0.31929,64.94873"
     id="path7022"
     inkscape:connector-curvature="0" />
  <path
     inkscape:connector-curvature="0"
     id="path7024"
     d="m 548.88486,464.42878 -0.31929,64.94873"
     style="fill:none;stroke:#ff003f;stroke-width:1.65106869;stroke-linecap:butt;stroke-linejoin:miter;stroke-miterlimit:4;stroke-dasharray:none;stroke-opacity:1" />
  <path
     style="fill:none;stroke:#ff003f;stroke-width:1.65106869;stroke-linecap:butt;stroke-linejoin:miter;stroke-miterlimit:4;stroke-dasharray:none;stroke-opacity:1"
     d="m 462.67964,552.91759 -0.31929,64.94873"
     id="path7028"
     inkscape:connector-curvature="0" />
  <path
     inkscape:connector-curvature="0"
     id="path7030"
     d="m 745.07533,472.50246 -0.31929,64.94873"
     style="fill:none;stroke:#ff003f;stroke-width:1.65106869;stroke-linecap:butt;stroke-linejoin:miter;stroke-miterlimit:4;stroke-dasharray:none;stroke-opacity:1" />
  <path
     style="fill:none;stroke:#ff003f;stroke-width:1.65106869;stroke-linecap:butt;stroke-linejoin:miter;stroke-miterlimit:4;stroke-dasharray:none;stroke-opacity:1"
     d="m 908.1637,508.02666 -0.31929,64.94873"
     id="path7032"
     inkscape:connector-curvature="0" />
  <path
     inkscape:connector-curvature="0"
     id="path7034"
     d="m 1006.6626,652.54557 -0.3193,64.94873"
     style="fill:none;stroke:#ff003f;stroke-width:1.65106869;stroke-linecap:butt;stroke-linejoin:miter;stroke-miterlimit:4;stroke-dasharray:none;stroke-opacity:1" />
  <path
     style="fill:none;stroke:#ff003f;stroke-width:1.65106869;stroke-linecap:butt;stroke-linejoin:miter;stroke-miterlimit:4;stroke-dasharray:none;stroke-opacity:1"
     d="m 892.82369,343.32355 -0.3193,64.94873"
     id="path7036"
     inkscape:connector-curvature="0" />
  <path
     style="fill:none;stroke:#ff003f;stroke-width:1.65106869;stroke-linecap:butt;stroke-linejoin:miter;stroke-miterlimit:4;stroke-dasharray:none;stroke-opacity:1"
     d="m 1076.5176,127.38254 -0.3193,64.94873"
     id="path7044"
     inkscape:connector-curvature="0" />
  <path
     style="fill:none;stroke:#ff003f;stroke-width:1.63167644;stroke-linecap:butt;stroke-linejoin:miter;stroke-miterlimit:4;stroke-dasharray:none;stroke-opacity:1"
     d="m 919.76966,1.8086732 -0.3173,63.8191088"
     id="path7048"
     inkscape:connector-curvature="0" />
  <path
     inkscape:connector-curvature="0"
     id="path7054"
     d="m 570.3816,40.058673 -0.3173,63.819107"
     style="fill:none;stroke:#ff003f;stroke-width:1.63167644;stroke-linecap:butt;stroke-linejoin:miter;stroke-miterlimit:4;stroke-dasharray:none;stroke-opacity:1" />
  <path
     style="fill:none;stroke:#ff003f;stroke-width:1.63167644;stroke-linecap:butt;stroke-linejoin:miter;stroke-miterlimit:4;stroke-dasharray:none;stroke-opacity:1"
     d="m 591.63731,181.13319 -0.3173,63.81911"
     id="path7056"
     inkscape:connector-curvature="0" />
  <path
     inkscape:connector-curvature="0"
     id="path7058"
     d="m 856.71827,133.18459 -0.3173,63.81911"
     style="fill:none;stroke:#ff003f;stroke-width:1.63167644;stroke-linecap:butt;stroke-linejoin:miter;stroke-miterlimit:4;stroke-dasharray:none;stroke-opacity:1" />
  <path
     style="fill:none;stroke:#ff003f;stroke-width:1.63167644;stroke-linecap:butt;stroke-linejoin:miter;stroke-miterlimit:4;stroke-dasharray:none;stroke-opacity:1"
     d="m 1001.5804,228.95777 -0.3173,63.81911"
     id="path7060"
     inkscape:connector-curvature="0" />
  <path
     inkscape:connector-curvature="0"
     id="path7062"
     d="m 1222.3161,45.012701 -0.3173,63.819109"
     style="fill:none;stroke:#ff003f;stroke-width:1.63167644;stroke-linecap:butt;stroke-linejoin:miter;stroke-miterlimit:4;stroke-dasharray:none;stroke-opacity:1" />
</svg>
